<svg width="144" height="48" viewBox="0 0 144 48" fill="none" xmlns="http://www.w3.org/2000/svg">
<path d="M132.533 0.000156H11.4737C11.0325 0.000156 10.5965 0.000156 10.1564 0.002556C9.78796 0.004956 9.42249 0.011928 9.05054 0.017796C8.24249 0.0272782 7.43635 0.0981675 6.63911 0.229848C5.84299 0.364395 5.07181 0.618055 4.35165 0.982248C3.63237 1.34952 2.97514 1.82676 2.40381 2.39664C1.82948 2.96492 1.35074 3.62178 0.98598 4.34195C0.620217 5.06069 0.366595 5.83088 0.233875 6.62593C0.0998928 7.41998 0.0277959 8.22318 0.018231 9.02833C0.00706378 9.39625 0.00588447 9.7654 0 10.1334V37.8705C0.00588447 38.2431 0.00706378 38.604 0.018231 38.9768C0.0277988 39.7819 0.0998957 40.585 0.233875 41.379C0.366228 42.1745 0.619865 42.9452 0.98598 43.6642C1.35057 44.382 1.82939 45.0362 2.40381 45.6014C2.97298 46.1738 3.63063 46.6513 4.35165 47.0158C5.0718 47.381 5.8429 47.6361 6.63911 47.7728C7.43648 47.9034 8.24254 47.9743 9.05054 47.9849C9.42249 47.9931 9.78796 47.9978 10.1564 47.9978C10.5965 48.0002 11.0325 48.0002 11.4737 48.0002H132.533C132.965 48.0002 133.405 48.0002 133.837 47.9978C134.204 47.9978 134.58 47.9931 134.947 47.9849C135.753 47.9749 136.558 47.9039 137.353 47.7728C138.152 47.6352 138.926 47.3801 139.65 47.0158C140.37 46.6511 141.027 46.1736 141.596 45.6014C142.169 45.034 142.648 44.3803 143.018 43.6642C143.381 42.9447 143.632 42.1741 143.763 41.379C143.897 40.5849 143.971 39.7819 143.986 38.9768C143.991 38.604 143.991 38.2431 143.991 37.8705C144 37.4345 144 37.001 144 36.5579V11.4435C144 11.0041 144 10.5681 143.991 10.1334C143.991 9.7654 143.991 9.39625 143.986 9.02828C143.971 8.22306 143.897 7.42004 143.763 6.62588C143.632 5.83129 143.381 5.06116 143.018 4.3419C142.275 2.89839 141.097 1.72339 139.65 0.98214C138.926 0.618837 138.152 0.365244 137.353 0.22974C136.558 0.0974793 135.753 0.0265653 134.947 0.017628C134.58 0.011772 134.204 0.00474 133.837 0.0024C133.405 0 132.965 0 132.533 0V0.000156Z" fill="#A6A6A6"/>
<path d="M10.1625 46.9508C9.79583 46.9508 9.43805 46.9461 9.07428 46.9379C8.32071 46.9282 7.5689 46.8627 6.82501 46.7422C6.13138 46.6231 5.45944 46.4015 4.83134 46.0847C4.20901 45.7706 3.6414 45.3587 3.15024 44.8648C2.65197 44.3768 2.23714 43.8107 1.92219 43.189C1.60376 42.5633 1.3834 41.8927 1.26876 41.2004C1.14496 40.4565 1.07798 39.7044 1.0684 38.9504C1.06077 38.6973 1.05078 37.8547 1.05078 37.8547V10.134C1.05078 10.134 1.06142 9.3043 1.06846 9.06054C1.07764 8.30776 1.14423 7.55677 1.26765 6.81406C1.3825 6.11988 1.60304 5.44728 1.92164 4.81954C2.23543 4.19831 2.64796 3.63181 3.14322 3.142C3.63793 2.64753 4.20736 2.23351 4.83076 1.91503C5.4574 1.59929 6.12808 1.37926 6.82031 1.26231C7.56663 1.14058 8.32105 1.07478 9.07724 1.06543L10.1631 1.05078H133.832L134.93 1.06602C135.68 1.0749 136.427 1.14012 137.167 1.26113C137.866 1.37955 138.544 1.60112 139.177 1.91855C140.426 2.56036 141.442 3.57578 142.084 4.82247C142.397 5.44587 142.614 6.11299 142.728 6.80117C142.852 7.54997 142.922 8.30687 142.937 9.06582C142.94 9.40566 142.94 9.7707 142.94 10.134C142.95 10.584 142.95 11.0123 142.95 11.4441V36.5585C142.95 36.9945 142.95 37.4199 142.94 37.8488C142.94 38.239 142.94 38.5965 142.935 38.9644C142.921 39.7098 142.853 40.4532 142.73 41.1886C142.618 41.8859 142.398 42.5618 142.08 43.1926C141.763 43.8075 141.35 44.3687 140.858 44.8555C140.366 45.352 139.798 45.7663 139.174 46.0825C138.542 46.4017 137.865 46.6241 137.167 46.7422C136.423 46.8634 135.671 46.9288 134.917 46.9379C134.565 46.9461 134.196 46.9508 133.837 46.9508L132.533 46.9532L10.1625 46.9508Z" fill="black"/>
<path d="M29.8061 24.3608C29.8191 23.3592 30.0859 22.3771 30.5817 21.506C31.0775 20.6348 31.7862 19.9029 32.6419 19.3783C32.0983 18.6041 31.3812 17.967 30.5475 17.5175C29.7137 17.0681 28.7864 16.8187 27.8391 16.7891C25.8184 16.5776 23.8593 17.9949 22.8296 17.9949C21.7799 17.9949 20.1945 16.8101 18.4872 16.8451C17.3829 16.8807 16.3067 17.2009 15.3634 17.7746C14.4201 18.3483 13.6419 19.1558 13.1047 20.1186C10.7774 24.1367 12.5133 30.0419 14.7427 33.2899C15.8581 34.8803 17.1617 36.6568 18.8674 36.5938C20.5365 36.5248 21.1599 35.5324 23.1747 35.5324C25.1708 35.5324 25.7557 36.5938 27.496 36.5538C29.2871 36.5248 30.4156 34.9563 31.4918 33.3508C32.2933 32.2176 32.9099 30.9651 33.3191 29.6398C32.2785 29.2009 31.3905 28.4663 30.7658 27.5275C30.1411 26.5888 29.8074 25.4874 29.8061 24.3608Z" fill="white"/>
<path d="M26.5191 14.6536C27.4957 13.4845 27.9768 11.9819 27.8603 10.4648C26.3683 10.6211 24.9901 11.3322 24.0004 12.4564C23.5165 13.0056 23.1458 13.6445 22.9097 14.3366C22.6735 15.0287 22.5765 15.7605 22.6241 16.49C23.3703 16.4977 24.1086 16.3364 24.7833 16.0183C25.458 15.7002 26.0515 15.2336 26.5191 14.6536Z" fill="white"/>
<path d="M50.9052 32.5672H45.2092L43.8413 36.595H41.4287L46.8239 21.6934H49.3305L54.7257 36.595H52.2719L50.9052 32.5672ZM45.7991 30.7086H50.3142L48.0884 24.1719H48.0261L45.7991 30.7086Z" fill="white"/>
<path d="M66.3775 31.1637C66.3775 34.5399 64.5654 36.709 61.8308 36.709C61.1381 36.7452 60.4491 36.5861 59.8429 36.2499C59.2366 35.9137 58.7376 35.4141 58.4028 34.8082H58.3511V40.1895H56.1147V25.7309H58.2794V27.5379H58.3206C58.6707 26.935 59.1782 26.438 59.7891 26.0997C60.3999 25.7615 61.0913 25.5948 61.7897 25.6172C64.5548 25.6172 66.3775 27.7969 66.3775 31.1637ZM64.0789 31.1637C64.0789 28.9641 62.939 27.518 61.1997 27.518C59.491 27.518 58.3417 28.9946 58.3417 31.1637C58.3417 33.3528 59.491 34.8188 61.1997 34.8188C62.939 34.8188 64.0789 33.3833 64.0789 31.1637Z" fill="white"/>
<path d="M78.3687 31.1637C78.3687 34.5399 76.5566 36.709 73.822 36.709C73.1293 36.7452 72.4403 36.586 71.8341 36.2499C71.2278 35.9137 70.7288 35.4141 70.394 34.8082H70.3423V40.1895H68.106V25.7309H70.2706V27.5379H70.3117C70.6619 26.935 71.1694 26.4379 71.7802 26.0997C72.3911 25.7615 73.0825 25.5948 73.7808 25.6172C76.546 25.6172 78.3687 27.7969 78.3687 31.1637ZM76.0701 31.1637C76.0701 28.9641 74.9302 27.518 73.1909 27.518C71.4822 27.518 70.3329 28.9946 70.3329 31.1637C70.3329 33.3528 71.4822 34.8188 73.1909 34.8188C74.9302 34.8188 76.0701 33.3833 76.0701 31.1637H76.0701Z" fill="white"/>
<path d="M86.2941 32.4434C86.4598 33.9212 87.8994 34.8914 89.8666 34.8914C91.7516 34.8914 93.1077 33.9211 93.1077 32.5887C93.1077 31.432 92.2898 30.7395 90.3532 30.2649L88.4165 29.7996C85.6725 29.1387 84.3986 27.859 84.3986 25.7824C84.3986 23.2113 86.6455 21.4453 89.8361 21.4453C92.9937 21.4453 95.1584 23.2113 95.2313 25.7824H92.9737C92.8386 24.2953 91.6059 23.3977 89.8043 23.3977C88.0028 23.3977 86.7701 24.3059 86.7701 25.6277C86.7701 26.6813 87.5574 27.3012 89.4835 27.7757L91.1299 28.1789C94.1959 28.9019 95.4698 30.1301 95.4698 32.3097C95.4698 35.0976 93.2429 36.8437 89.7009 36.8437C86.3869 36.8437 84.1494 35.1386 84.0049 32.4433L86.2941 32.4434Z" fill="white"/>
<path d="M100.296 23.1602V25.7313H102.368V27.4973H100.296V33.4867C100.296 34.4172 100.711 34.8508 101.622 34.8508C101.868 34.8465 102.113 34.8293 102.358 34.7992V36.5547C101.948 36.6309 101.532 36.6655 101.115 36.6578C98.9097 36.6578 98.0494 35.8316 98.0494 33.7246V27.4973H96.4653V25.7313H98.0494V23.1602H100.296Z" fill="white"/>
<path d="M103.568 31.1641C103.568 27.7457 105.587 25.5977 108.735 25.5977C111.894 25.5977 113.903 27.7457 113.903 31.1641C113.903 34.5918 111.904 36.7305 108.735 36.7305C105.567 36.7305 103.568 34.5918 103.568 31.1641ZM111.625 31.1641C111.625 28.8191 110.547 27.4352 108.735 27.4352C106.923 27.4352 105.847 28.8297 105.847 31.1641C105.847 33.5184 106.923 34.8918 108.735 34.8918C110.547 34.8918 111.625 33.5184 111.625 31.1641H111.625Z" fill="white"/>
<path d="M115.747 25.7308H117.88V27.58H117.932C118.076 27.0025 118.415 26.4921 118.893 26.1346C119.37 25.7771 119.956 25.5944 120.552 25.6171C120.81 25.6162 121.067 25.6441 121.319 25.7003V27.7863C120.993 27.6871 120.654 27.6416 120.314 27.6515C119.989 27.6384 119.665 27.6955 119.364 27.819C119.064 27.9424 118.793 28.1293 118.572 28.3668C118.351 28.6042 118.183 28.8867 118.082 29.1947C117.98 29.5027 117.947 29.829 117.983 30.1511V36.5953H115.747L115.747 25.7308Z" fill="white"/>
<path d="M131.63 33.4047C131.329 35.377 129.403 36.7305 126.938 36.7305C123.769 36.7305 121.802 34.6129 121.802 31.2156C121.802 27.8078 123.78 25.5977 126.844 25.5977C129.859 25.5977 131.754 27.6625 131.754 30.9566V31.7207H124.059V31.8555C124.024 32.2553 124.074 32.6581 124.207 33.0371C124.339 33.4161 124.551 33.7627 124.828 34.0537C125.105 34.3448 125.442 34.5737 125.814 34.7253C126.187 34.8768 126.588 34.9476 126.99 34.9328C127.519 34.9822 128.049 34.8601 128.502 34.5848C128.956 34.3095 129.308 33.8956 129.506 33.4047L131.63 33.4047ZM124.07 30.1621H129.517C129.537 29.8026 129.482 29.4428 129.356 29.1054C129.23 28.7679 129.036 28.4601 128.785 28.2012C128.534 27.9422 128.232 27.7378 127.898 27.6008C127.564 27.4637 127.205 27.397 126.844 27.4047C126.48 27.4025 126.119 27.4723 125.782 27.61C125.445 27.7477 125.139 27.9506 124.881 28.2069C124.623 28.4633 124.419 28.768 124.279 29.1036C124.14 29.4392 124.069 29.799 124.07 30.1621V30.1621Z" fill="white"/>
<path d="M45.5189 10.4769C45.9877 10.4433 46.4582 10.514 46.8964 10.6837C47.3345 10.8534 47.7295 11.118 48.0527 11.4583C48.3759 11.7987 48.6193 12.2063 48.7654 12.6518C48.9115 13.0974 48.9566 13.5697 48.8975 14.0347C48.8975 16.3222 47.6577 17.6371 45.5189 17.6371H42.9253V10.4769H45.5189ZM44.0405 16.6245H45.3943C45.7293 16.6444 46.0646 16.5897 46.3757 16.4641C46.6868 16.3386 46.966 16.1455 47.1928 15.8988C47.4196 15.6521 47.5884 15.3581 47.6869 15.0381C47.7855 14.7182 47.8112 14.3804 47.7623 14.0493C47.8076 13.7195 47.7793 13.3837 47.6793 13.0662C47.5793 12.7486 47.41 12.457 47.1837 12.2122C46.9574 11.9675 46.6796 11.7757 46.3703 11.6507C46.0609 11.5256 45.7276 11.4703 45.3943 11.4887H44.0405V16.6245Z" fill="white"/>
<path d="M50.1571 14.9345C50.123 14.5794 50.1638 14.2211 50.2767 13.8826C50.3896 13.5442 50.5722 13.233 50.8128 12.969C51.0535 12.705 51.3467 12.4941 51.6739 12.3497C52.001 12.2054 52.3548 12.1309 52.7125 12.1309C53.0702 12.1309 53.424 12.2054 53.7511 12.3497C54.0783 12.4941 54.3716 12.705 54.6122 12.969C54.8528 13.233 55.0354 13.5442 55.1483 13.8826C55.2612 14.2211 55.302 14.5794 55.2679 14.9345C55.3026 15.29 55.2624 15.6488 55.1497 15.9878C55.0371 16.3268 54.8546 16.6386 54.6139 16.9031C54.3733 17.1676 54.0798 17.379 53.7523 17.5236C53.4248 17.6682 53.0707 17.743 52.7125 17.743C52.3544 17.743 52.0002 17.6682 51.6727 17.5236C51.3452 17.379 51.0517 17.1676 50.8111 16.9031C50.5704 16.6386 50.3879 16.3268 50.2753 15.9878C50.1626 15.6488 50.1224 15.29 50.1571 14.9345ZM54.1679 14.9345C54.1679 13.7632 53.6403 13.0783 52.7143 13.0783C51.7847 13.0783 51.2618 13.7632 51.2618 14.9345C51.2618 16.1152 51.7847 16.7949 52.7143 16.7949C53.6403 16.7949 54.1679 16.1105 54.1679 14.9345H54.1679Z" fill="white"/>
<path d="M62.0616 17.6379H60.9522L59.8323 13.6582H59.7477L58.6325 17.6379H57.5337L56.04 12.2344H57.1247L58.0954 16.3576H58.1753L59.2894 12.2344H60.3153L61.4294 16.3576H61.514L62.4799 12.2344H63.5493L62.0616 17.6379Z" fill="white"/>
<path d="M64.8057 12.2346H65.8351V13.093H65.915C66.0506 12.7847 66.2792 12.5263 66.5691 12.3537C66.8589 12.1811 67.1956 12.103 67.5321 12.1303C67.7957 12.1106 68.0604 12.1502 68.3067 12.2463C68.5529 12.3424 68.7742 12.4925 68.9543 12.6856C69.1345 12.8786 69.2687 13.1095 69.3472 13.3613C69.4257 13.6131 69.4463 13.8793 69.4076 14.1401V17.6381H68.3382V14.4079C68.3382 13.5395 67.9598 13.1077 67.1689 13.1077C66.9899 13.0994 66.8112 13.1297 66.6451 13.1967C66.4789 13.2637 66.3293 13.3658 66.2064 13.4958C66.0835 13.6259 65.9903 13.7809 65.9331 13.9503C65.8759 14.1196 65.8561 14.2993 65.8751 14.477V17.6381H64.8057L64.8057 12.2346Z" fill="white"/>
<path d="M71.1118 10.125H72.1812V17.6379H71.1118V10.125Z" fill="white"/>
<path d="M73.6678 14.9327C73.6338 14.5775 73.6745 14.2192 73.7875 13.8807C73.9004 13.5422 74.0831 13.231 74.3237 12.967C74.5644 12.7031 74.8577 12.4921 75.1848 12.3478C75.512 12.2035 75.8658 12.1289 76.2235 12.1289C76.5813 12.1289 76.9351 12.2035 77.2622 12.3478C77.5894 12.4921 77.8827 12.7031 78.1233 12.967C78.3639 13.231 78.5466 13.5422 78.6595 13.8807C78.7725 14.2192 78.8132 14.5775 78.7792 14.9327C78.8139 15.2881 78.7736 15.6469 78.6609 15.986C78.5483 16.325 78.3657 16.6368 78.125 16.9012C77.8843 17.1657 77.5908 17.3771 77.2633 17.5217C76.9359 17.6664 76.5817 17.7411 76.2235 17.7411C75.8654 17.7411 75.5111 17.6664 75.1837 17.5217C74.8562 17.3771 74.5627 17.1657 74.322 16.9012C74.0813 16.6368 73.8988 16.325 73.7861 15.986C73.6734 15.6469 73.6332 15.2881 73.6678 14.9327ZM77.6786 14.9327C77.6786 13.7614 77.151 13.0764 76.225 13.0764C75.2954 13.0764 74.7725 13.7614 74.7725 14.9327C74.7725 16.1133 75.2955 16.793 76.225 16.793C77.151 16.793 77.6787 16.1086 77.6787 14.9327H77.6786Z" fill="white"/>
<path d="M79.9048 16.1105C79.9048 15.1379 80.631 14.5771 81.9202 14.4975L83.388 14.4131V13.9467C83.388 13.376 83.0096 13.0537 82.2786 13.0537C81.6816 13.0537 81.268 13.2723 81.1493 13.6543H80.114C80.2233 12.7262 81.0988 12.1309 82.328 12.1309C83.6865 12.1309 84.4527 12.8053 84.4527 13.9467V17.6387H83.4232V16.8793H83.3386C83.1669 17.1517 82.9257 17.3737 82.6398 17.5228C82.3538 17.6719 82.0333 17.7426 81.711 17.7277C81.4835 17.7513 81.2536 17.7271 81.0361 17.6567C80.8186 17.5862 80.6183 17.4711 80.4481 17.3187C80.2779 17.1664 80.1417 16.9801 80.0481 16.772C79.9545 16.5639 79.9057 16.3386 79.9048 16.1105ZM83.388 15.6488V15.1971L82.0647 15.2814C81.3185 15.3312 80.9801 15.5844 80.9801 16.0607C80.9801 16.5471 81.4031 16.8301 81.9849 16.8301C82.1553 16.8473 82.3275 16.8301 82.4912 16.7796C82.6548 16.7291 82.8066 16.6463 82.9375 16.5361C83.0684 16.4258 83.1758 16.2905 83.2532 16.1381C83.3306 15.9857 83.3764 15.8193 83.388 15.6488Z" fill="white"/>
<path d="M85.8584 14.9338C85.8584 13.2264 86.7386 12.1447 88.1077 12.1447C88.4463 12.1292 88.7824 12.2101 89.0767 12.3779C89.3709 12.5458 89.6112 12.7937 89.7694 13.0927H89.8493V10.125H90.9187V17.6379H89.8939V16.7842H89.8093C89.6389 17.0812 89.3903 17.326 89.0903 17.4922C88.7904 17.6584 88.4506 17.7395 88.1077 17.7269C86.7292 17.727 85.8584 16.6453 85.8584 14.9338ZM86.9631 14.9338C86.9631 16.0799 87.5049 16.7696 88.4109 16.7696C89.3122 16.7696 89.8693 16.07 89.8693 14.9385C89.8693 13.8123 89.3064 13.1028 88.4109 13.1028C87.5107 13.1028 86.9631 13.7971 86.9631 14.9338H86.9631Z" fill="white"/>
<path d="M95.3431 14.9345C95.3091 14.5794 95.3498 14.2211 95.4627 13.8826C95.5757 13.5442 95.7583 13.233 95.9989 12.969C96.2395 12.705 96.5328 12.4941 96.8599 12.3497C97.187 12.2054 97.5408 12.1309 97.8985 12.1309C98.2563 12.1309 98.61 12.2054 98.9372 12.3497C99.2643 12.4941 99.5576 12.705 99.7982 12.969C100.039 13.233 100.221 13.5442 100.334 13.8826C100.447 14.2211 100.488 14.5794 100.454 14.9345C100.489 15.29 100.448 15.6488 100.336 15.9878C100.223 16.3268 100.041 16.6386 99.8 16.9031C99.5593 17.1676 99.2658 17.379 98.9383 17.5236C98.6109 17.6682 98.2567 17.743 97.8985 17.743C97.5404 17.743 97.1862 17.6682 96.8587 17.5236C96.5313 17.379 96.2378 17.1676 95.9971 16.9031C95.7564 16.6386 95.5739 16.3268 95.4613 15.9878C95.3487 15.6488 95.3084 15.29 95.3431 14.9345ZM99.354 14.9345C99.354 13.7632 98.8263 13.0783 97.9003 13.0783C96.9707 13.0783 96.4478 13.7632 96.4478 14.9345C96.4478 16.1152 96.9708 16.7949 97.9003 16.7949C98.8263 16.7949 99.354 16.1105 99.354 14.9345Z" fill="white"/>
<path d="M101.889 12.2346H102.918V13.093H102.998C103.134 12.7847 103.362 12.5263 103.652 12.3537C103.942 12.1811 104.279 12.103 104.615 12.1303C104.879 12.1106 105.143 12.1502 105.39 12.2463C105.636 12.3424 105.857 12.4925 106.037 12.6856C106.217 12.8786 106.352 13.1095 106.43 13.3613C106.509 13.6131 106.529 13.8793 106.491 14.1401V17.6381H105.421V14.4079C105.421 13.5395 105.043 13.1077 104.252 13.1077C104.073 13.0994 103.894 13.1297 103.728 13.1967C103.562 13.2637 103.412 13.3658 103.289 13.4958C103.167 13.6259 103.073 13.7809 103.016 13.9503C102.959 14.1196 102.939 14.2993 102.958 14.477V17.6381H101.889V12.2346Z" fill="white"/>
<path d="M112.533 10.8887V12.2586H113.707V13.1568H112.533V15.9354C112.533 16.5014 112.767 16.7492 113.3 16.7492C113.436 16.7488 113.572 16.7406 113.707 16.7246V17.6129C113.515 17.6471 113.321 17.6654 113.126 17.6674C111.936 17.6674 111.463 17.2502 111.463 16.2084V13.1568H110.603V12.2585H111.463V10.8887H112.533Z" fill="white"/>
<path d="M115.168 10.125H116.228V13.1027H116.313C116.455 12.7916 116.69 12.5316 116.985 12.3584C117.281 12.1852 117.623 12.1071 117.965 12.1348C118.227 12.1205 118.489 12.1642 118.733 12.2627C118.976 12.3611 119.195 12.5119 119.373 12.7043C119.551 12.8967 119.685 13.126 119.764 13.3757C119.843 13.6255 119.866 13.8896 119.831 14.1492V17.6379H118.76V14.4123C118.76 13.5492 118.357 13.1121 117.602 13.1121C117.418 13.0971 117.233 13.1223 117.06 13.1859C116.887 13.2496 116.73 13.3502 116.6 13.4807C116.47 13.6112 116.37 13.7684 116.308 13.9413C116.245 14.1143 116.221 14.2988 116.237 14.482V17.6379H115.168L115.168 10.125Z" fill="white"/>
<path d="M126.067 16.1778C125.921 16.6717 125.606 17.0988 125.177 17.3846C124.748 17.6704 124.232 17.7966 123.719 17.7411C123.362 17.7505 123.007 17.6823 122.679 17.5413C122.351 17.4002 122.058 17.1897 121.82 16.9244C121.581 16.659 121.404 16.3451 121.3 16.0046C121.195 15.664 121.167 15.3048 121.215 14.952C121.168 14.5982 121.197 14.2383 121.301 13.8967C121.405 13.5551 121.582 13.2397 121.819 12.972C122.056 12.7044 122.347 12.4905 122.674 12.3451C123.001 12.1996 123.356 12.126 123.714 12.129C125.222 12.129 126.131 13.1562 126.131 14.853V15.2251H122.305V15.2849C122.288 15.4832 122.313 15.6828 122.378 15.8709C122.443 16.059 122.547 16.2314 122.683 16.3772C122.819 16.5229 122.984 16.6387 123.167 16.7172C123.351 16.7957 123.548 16.8351 123.748 16.8329C124.004 16.8635 124.263 16.8176 124.492 16.7009C124.722 16.5843 124.912 16.4022 125.037 16.1778L126.067 16.1778ZM122.305 14.4364H125.042C125.055 14.2551 125.031 14.0729 124.969 13.9016C124.908 13.7304 124.811 13.5738 124.686 13.442C124.56 13.3101 124.408 13.206 124.24 13.1362C124.071 13.0664 123.89 13.0324 123.708 13.0366C123.523 13.0343 123.339 13.0689 123.168 13.1385C122.997 13.208 122.841 13.311 122.71 13.4415C122.58 13.5719 122.476 13.7272 122.407 13.8981C122.337 14.0689 122.302 14.252 122.305 14.4364H122.305Z" fill="white"/>
</svg>
