<svg width="3491" height="4880" viewBox="0 0 3491 4880" fill="none" xmlns="http://www.w3.org/2000/svg">
<path fill-rule="evenodd" clip-rule="evenodd" d="M577 3242C577 3242.17 577 3242.33 577 3242.5C577 3866.86 1083.14 4373 1707.5 4373C2331.86 4373 2838 3866.86 2838 3242.5C2838 3242.33 2838 3242.17 2838 3242H2273C2273 3242.17 2273 3242.33 2273 3242.5C2273 3554.82 2019.82 3808 1707.5 3808C1395.18 3808 1142 3554.82 1142 3242.5C1142 3242.33 1142 3242.17 1142 3242H577Z" fill="#145EAA"/>
<path d="M3170 660C3170 843.359 3021.36 992 2838 992C2654.64 992 2506 843.359 2506 660C2506 476.641 2654.64 328 2838 328C3021.36 328 3170 476.641 3170 660Z" fill="#145EAA"/>
<path fill-rule="evenodd" clip-rule="evenodd" d="M1707 814C1082.87 814.27 577 1320.31 577 1944.5L577 1945H1142L1142 1944.5C1142 1632.35 1394.91 1379.27 1707 1379V814Z" fill="#6ABC45"/>
<path fill-rule="evenodd" clip-rule="evenodd" d="M1707 3076C1082.87 3075.73 577 2569.69 577 1945.5L577 1945H1142L1142 1945.5C1142 2257.65 1394.91 2510.73 1707 2511V3076Z" fill="#CD181E"/>
<path fill-rule="evenodd" clip-rule="evenodd" d="M1707 3076C2331.13 3075.73 2837 2569.69 2837 1945.5L2837 1945H2272L2272 1945.5C2272 2257.65 2019.09 2510.73 1707 2511V3076Z" fill="#28AAE1"/>
<path fill-rule="evenodd" clip-rule="evenodd" d="M1707 814C2331.13 814.27 2837 1320.31 2837 1944.5L2837 1945H2272L2272 1944.5C2272 1632.35 2019.09 1379.27 1707 1379V814Z" fill="#F5851F"/>
</svg>
