<svg width="40" height="40" viewBox="0 0 40 40" fill="none" xmlns="http://www.w3.org/2000/svg">
<rect width="40" height="40" rx="20" fill="#764FDB"/>
<path d="M23.9583 12.9667V11.6667C23.9583 11.325 23.675 11.0417 23.3333 11.0417C22.9917 11.0417 22.7083 11.325 22.7083 11.6667V12.9167H17.2917V11.6667C17.2917 11.325 17.0083 11.0417 16.6667 11.0417C16.325 11.0417 16.0417 11.325 16.0417 11.6667V12.9667C13.7917 13.175 12.7 14.5167 12.5333 16.5083C12.5167 16.75 12.7167 16.95 12.95 16.95H27.05C27.2917 16.95 27.4917 16.7417 27.4667 16.5083C27.3 14.5167 26.2083 13.175 23.9583 12.9667Z" fill="white"/>
<path d="M26.6667 18.2H13.3333C12.875 18.2 12.5 18.575 12.5 19.0333V24.1667C12.5 26.6667 13.75 28.3333 16.6667 28.3333H23.3333C26.25 28.3333 27.5 26.6667 27.5 24.1667V19.0333C27.5 18.575 27.125 18.2 26.6667 18.2ZM17.675 25.175C17.5917 25.25 17.5 25.3083 17.4 25.35C17.3 25.3917 17.1917 25.4167 17.0833 25.4167C16.975 25.4167 16.8667 25.3917 16.7667 25.35C16.6667 25.3083 16.575 25.25 16.4917 25.175C16.3417 25.0167 16.25 24.8 16.25 24.5833C16.25 24.3667 16.3417 24.15 16.4917 23.9917C16.575 23.9167 16.6667 23.8583 16.7667 23.8167C16.9667 23.7333 17.2 23.7333 17.4 23.8167C17.5 23.8583 17.5917 23.9167 17.675 23.9917C17.825 24.15 17.9167 24.3667 17.9167 24.5833C17.9167 24.8 17.825 25.0167 17.675 25.175ZM17.85 21.9833C17.8083 22.0833 17.75 22.175 17.675 22.2583C17.5917 22.3333 17.5 22.3917 17.4 22.4333C17.3 22.475 17.1917 22.5 17.0833 22.5C16.975 22.5 16.8667 22.475 16.7667 22.4333C16.6667 22.3917 16.575 22.3333 16.4917 22.2583C16.4167 22.175 16.3583 22.0833 16.3167 21.9833C16.275 21.8833 16.25 21.775 16.25 21.6667C16.25 21.5583 16.275 21.45 16.3167 21.35C16.3583 21.25 16.4167 21.1583 16.4917 21.075C16.575 21 16.6667 20.9417 16.7667 20.9C16.9667 20.8167 17.2 20.8167 17.4 20.9C17.5 20.9417 17.5917 21 17.675 21.075C17.75 21.1583 17.8083 21.25 17.85 21.35C17.8917 21.45 17.9167 21.5583 17.9167 21.6667C17.9167 21.775 17.8917 21.8833 17.85 21.9833ZM20.5917 22.2583C20.5083 22.3333 20.4167 22.3917 20.3167 22.4333C20.2167 22.475 20.1083 22.5 20 22.5C19.8917 22.5 19.7833 22.475 19.6833 22.4333C19.5833 22.3917 19.4917 22.3333 19.4083 22.2583C19.2583 22.1 19.1667 21.8833 19.1667 21.6667C19.1667 21.45 19.2583 21.2333 19.4083 21.075C19.4917 21 19.5833 20.9417 19.6833 20.9C19.8833 20.8083 20.1167 20.8083 20.3167 20.9C20.4167 20.9417 20.5083 21 20.5917 21.075C20.7417 21.2333 20.8333 21.45 20.8333 21.6667C20.8333 21.8833 20.7417 22.1 20.5917 22.2583Z" fill="white"/>
</svg>
