<svg width="20" height="20" viewBox="0 0 20 20" fill="none" xmlns="http://www.w3.org/2000/svg">
<path d="M6.66667 4.79199C6.325 4.79199 6.04167 4.50866 6.04167 4.16699V1.66699C6.04167 1.32533 6.325 1.04199 6.66667 1.04199C7.00833 1.04199 7.29167 1.32533 7.29167 1.66699V4.16699C7.29167 4.50866 7.00833 4.79199 6.66667 4.79199Z" fill="#4B5565"/>
<path d="M13.3333 4.79199C12.9917 4.79199 12.7083 4.50866 12.7083 4.16699V1.66699C12.7083 1.32533 12.9917 1.04199 13.3333 1.04199C13.675 1.04199 13.9583 1.32533 13.9583 1.66699V4.16699C13.9583 4.50866 13.675 4.79199 13.3333 4.79199Z" fill="#4B5565"/>
<path d="M17.0833 8.2003H2.91667C2.575 8.2003 2.29167 7.91696 2.29167 7.5753C2.29167 7.23363 2.575 6.9503 2.91667 6.9503H17.0833C17.425 6.9503 17.7083 7.23363 17.7083 7.5753C17.7083 7.91696 17.425 8.2003 17.0833 8.2003Z" fill="#4B5565"/>
<path d="M13.3333 18.9587H6.66667C3.625 18.9587 1.875 17.2087 1.875 14.167V7.08366C1.875 4.04199 3.625 2.29199 6.66667 2.29199H13.3333C16.375 2.29199 18.125 4.04199 18.125 7.08366V14.167C18.125 17.2087 16.375 18.9587 13.3333 18.9587ZM6.66667 3.54199C4.28333 3.54199 3.125 4.70033 3.125 7.08366V14.167C3.125 16.5503 4.28333 17.7087 6.66667 17.7087H13.3333C15.7167 17.7087 16.875 16.5503 16.875 14.167V7.08366C16.875 4.70033 15.7167 3.54199 13.3333 3.54199H6.66667Z" fill="#4B5565"/>
<path d="M7.08333 12.0837C6.975 12.0837 6.86666 12.0587 6.76666 12.017C6.66666 11.9753 6.57501 11.917 6.49167 11.842C6.41667 11.7587 6.35832 11.667 6.31666 11.567C6.27499 11.467 6.25 11.3587 6.25 11.2503C6.25 11.0337 6.34167 10.817 6.49167 10.6587C6.57501 10.5837 6.66666 10.5253 6.76666 10.4837C6.91666 10.417 7.08334 10.4003 7.25001 10.4337C7.30001 10.442 7.35 10.4587 7.4 10.4837C7.45 10.5003 7.5 10.5253 7.55 10.5587C7.59166 10.592 7.63333 10.6253 7.67499 10.6587C7.70833 10.7003 7.74999 10.742 7.77499 10.7837C7.80832 10.8337 7.83334 10.8837 7.85001 10.9337C7.87501 10.9837 7.89168 11.0337 7.90001 11.0837C7.90834 11.142 7.91667 11.192 7.91667 11.2503C7.91667 11.467 7.82499 11.6837 7.67499 11.842C7.51666 11.992 7.3 12.0837 7.08333 12.0837Z" fill="#4B5565"/>
<path d="M10 12.0837C9.78333 12.0837 9.56667 11.992 9.40834 11.842C9.37501 11.8003 9.34168 11.7587 9.30834 11.717C9.27501 11.667 9.24999 11.617 9.23332 11.567C9.20832 11.517 9.19166 11.467 9.18332 11.417C9.17499 11.3587 9.16667 11.3087 9.16667 11.2503C9.16667 11.142 9.19166 11.0337 9.23332 10.9337C9.27499 10.8337 9.33334 10.742 9.40834 10.6587C9.64167 10.4253 10.0167 10.3503 10.3167 10.4836C10.425 10.5253 10.5083 10.5837 10.5917 10.6587C10.7417 10.817 10.8333 11.0337 10.8333 11.2503C10.8333 11.3087 10.825 11.3587 10.8167 11.417C10.8083 11.467 10.7917 11.517 10.7667 11.567C10.75 11.617 10.725 11.667 10.6917 11.717C10.6583 11.7587 10.625 11.8003 10.5917 11.842C10.5083 11.917 10.425 11.9753 10.3167 12.017C10.2167 12.0587 10.1083 12.0837 10 12.0837Z" fill="#4B5565"/>
<path d="M7.08333 15.0003C6.975 15.0003 6.86666 14.9753 6.76666 14.9337C6.66666 14.892 6.57501 14.8336 6.49167 14.7586C6.41667 14.6753 6.35832 14.592 6.31666 14.4837C6.27499 14.3837 6.25 14.2753 6.25 14.167C6.25 13.9503 6.34167 13.7337 6.49167 13.5753C6.57501 13.5003 6.66666 13.442 6.76666 13.4003C7.075 13.267 7.44166 13.342 7.67499 13.5753C7.70833 13.617 7.74999 13.6587 7.77499 13.7003C7.80832 13.7503 7.83334 13.8003 7.85001 13.8503C7.87501 13.9003 7.89168 13.9503 7.90001 14.0087C7.90834 14.0587 7.91667 14.117 7.91667 14.167C7.91667 14.3837 7.82499 14.6003 7.67499 14.7586C7.51666 14.9086 7.3 15.0003 7.08333 15.0003Z" fill="#4B5565"/>
</svg>
