<svg width="20" height="20" viewBox="0 0 20 20" fill="none" xmlns="http://www.w3.org/2000/svg">
<path d="M10 19.0087C9.42502 19.0087 8.88335 18.717 8.50002 18.2087L7.25002 16.542C7.22502 16.5087 7.12502 16.467 7.08335 16.4587H6.66669C3.19169 16.4587 1.04169 15.517 1.04169 10.8337V6.66699C1.04169 2.98366 2.98335 1.04199 6.66669 1.04199H13.3334C17.0167 1.04199 18.9584 2.98366 18.9584 6.66699V10.8337C18.9584 14.517 17.0167 16.4587 13.3334 16.4587H12.9167C12.85 16.4587 12.7917 16.492 12.75 16.542L11.5 18.2087C11.1167 18.717 10.575 19.0087 10 19.0087ZM6.66669 2.29199C3.68335 2.29199 2.29169 3.68366 2.29169 6.66699V10.8337C2.29169 14.6003 3.58335 15.2087 6.66669 15.2087H7.08335C7.50835 15.2087 7.99169 15.4503 8.25002 15.792L9.50002 17.4587C9.79169 17.842 10.2084 17.842 10.5 17.4587L11.75 15.792C12.025 15.4253 12.4584 15.2087 12.9167 15.2087H13.3334C16.3167 15.2087 17.7084 13.817 17.7084 10.8337V6.66699C17.7084 3.68366 16.3167 2.29199 13.3334 2.29199H6.66669Z" fill="#4B5565"/>
<path d="M10 10.0003C9.53335 10.0003 9.16669 9.62533 9.16669 9.16699C9.16669 8.70866 9.54169 8.33366 10 8.33366C10.4584 8.33366 10.8334 8.70866 10.8334 9.16699C10.8334 9.62533 10.4667 10.0003 10 10.0003Z" fill="#4B5565"/>
<path d="M13.3334 10.0003C12.8667 10.0003 12.5 9.62533 12.5 9.16699C12.5 8.70866 12.875 8.33366 13.3334 8.33366C13.7917 8.33366 14.1667 8.70866 14.1667 9.16699C14.1667 9.62533 13.8 10.0003 13.3334 10.0003Z" fill="#4B5565"/>
<path d="M6.66669 10.0003C6.20002 10.0003 5.83335 9.62533 5.83335 9.16699C5.83335 8.70866 6.20835 8.33366 6.66669 8.33366C7.12502 8.33366 7.50002 8.70866 7.50002 9.16699C7.50002 9.62533 7.13335 10.0003 6.66669 10.0003Z" fill="#4B5565"/>
</svg>
