<svg width="40" height="40" viewBox="0 0 40 40" fill="none" xmlns="http://www.w3.org/2000/svg">
<rect width="40" height="40" rx="20" fill="#764FDB"/>
<path d="M23.4917 11.6667H16.5084C13.4751 11.6667 11.6667 13.475 11.6667 16.5083V23.4833C11.6667 26.525 13.4751 28.3333 16.5084 28.3333H23.4834C26.5167 28.3333 28.3251 26.525 28.3251 23.4917V16.5083C28.3334 13.475 26.5251 11.6667 23.4917 11.6667ZM22.3251 23.8333C22.2001 23.9917 22.0167 24.075 21.8334 24.075C21.7001 24.075 21.5667 24.0333 21.4501 23.9417C20.5667 23.2583 19.4251 23.2583 18.5417 23.9417C18.2667 24.15 17.8751 24.1 17.6667 23.8333C17.4584 23.5583 17.5084 23.1667 17.7751 22.9583C19.1001 21.9333 20.8834 21.9333 22.2084 22.9583C22.4917 23.1667 22.5417 23.5583 22.3251 23.8333ZM24.1667 21.2583C24.0417 21.4167 23.8584 21.5 23.6751 21.5C23.5417 21.5 23.4084 21.4583 23.2917 21.3667C21.2917 19.825 18.7167 19.825 16.7167 21.3667C16.4417 21.5833 16.0501 21.5333 15.8334 21.2583C15.6167 20.9833 15.6751 20.5917 15.9417 20.3833C18.4001 18.4833 21.5834 18.4833 24.0417 20.3833C24.3251 20.5917 24.3751 20.9833 24.1667 21.2583ZM25.4917 18.6833C25.3667 18.8417 25.1834 18.925 25.0001 18.925C24.8667 18.925 24.7334 18.8833 24.6167 18.7917C21.8084 16.625 18.1834 16.625 15.3834 18.7917C15.1084 19 14.7167 18.95 14.5084 18.6833C14.3001 18.4083 14.3501 18.0167 14.6167 17.8083C17.8834 15.2833 22.1084 15.2833 25.3834 17.8083C25.6584 18.0167 25.7084 18.4083 25.4917 18.6833Z" fill="white"/>
</svg>
