<svg width="40" height="40" viewBox="0 0 40 40" fill="none" xmlns="http://www.w3.org/2000/svg">
<rect width="40" height="40" rx="20" fill="#764FDB"/>
<path d="M24.1667 12.9167H15.8334C13.3334 12.9167 11.6667 14.1667 11.6667 17.0833V22.9167C11.6667 25.8333 13.3334 27.0833 15.8334 27.0833H24.1667C26.6667 27.0833 28.3334 25.8333 28.3334 22.9167V17.0833C28.3334 14.1667 26.6667 12.9167 24.1667 12.9167ZM24.5584 17.9917L21.9501 20.075C21.4001 20.5167 20.7001 20.7333 20.0001 20.7333C19.3001 20.7333 18.5917 20.5167 18.0501 20.075L15.4417 17.9917C15.1751 17.775 15.1334 17.375 15.3417 17.1083C15.5584 16.8417 15.9501 16.7917 16.2167 17.0083L18.8251 19.0917C19.4584 19.6 20.5334 19.6 21.1667 19.0917L23.7751 17.0083C24.0417 16.7917 24.4417 16.8333 24.6501 17.1083C24.8667 17.375 24.8251 17.775 24.5584 17.9917Z" fill="white"/>
</svg>
