<svg width="20" height="20" viewBox="0 0 20 20" fill="none" xmlns="http://www.w3.org/2000/svg">
<path d="M14.1667 17.7087H5.83335C2.79169 17.7087 1.04169 15.9587 1.04169 12.917V7.08366C1.04169 4.04199 2.79169 2.29199 5.83335 2.29199H14.1667C17.2084 2.29199 18.9584 4.04199 18.9584 7.08366V12.917C18.9584 15.9587 17.2084 17.7087 14.1667 17.7087ZM5.83335 3.54199C3.45002 3.54199 2.29169 4.70033 2.29169 7.08366V12.917C2.29169 15.3003 3.45002 16.4587 5.83335 16.4587H14.1667C16.55 16.4587 17.7084 15.3003 17.7084 12.917V7.08366C17.7084 4.70033 16.55 3.54199 14.1667 3.54199H5.83335Z" fill="#4B5565"/>
<path d="M9.99984 10.7253C9.29984 10.7253 8.59151 10.5086 8.04984 10.067L5.4415 7.98364C5.17483 7.76697 5.12484 7.3753 5.34151 7.10863C5.55817 6.84197 5.94984 6.79197 6.21651 7.00864L8.82483 9.09197C9.45817 9.6003 10.5332 9.6003 11.1665 9.09197L13.7748 7.00864C14.0415 6.79197 14.4415 6.83363 14.6498 7.10863C14.8665 7.3753 14.8248 7.7753 14.5498 7.98364L13.2457 9.0253L11.9415 10.067C11.4082 10.5086 10.6998 10.7253 9.99984 10.7253Z" fill="#4B5565"/>
</svg>
