<svg width="20" height="20" viewBox="0 0 20 20" fill="none" xmlns="http://www.w3.org/2000/svg">
<path fill-rule="evenodd" clip-rule="evenodd" d="M10 18.9587C5.05835 18.9587 1.04169 14.942 1.04169 10.0003C1.04169 5.05866 5.05835 1.04199 10 1.04199C14.9417 1.04199 18.9584 5.05866 18.9584 10.0003C18.9584 14.942 14.9417 18.9587 10 18.9587ZM10 2.29199C9.35365 2.29199 8.72559 2.37199 8.12523 2.52259C8.12297 2.58228 8.11195 2.64207 8.09169 2.70033C7.75264 3.71928 7.48696 4.76048 7.29466 5.81439C9.09202 5.61533 10.9099 5.61547 12.7062 5.81483C12.5138 4.75827 12.2478 3.71404 11.9083 2.69174C11.8897 2.63603 11.8795 2.57934 11.8769 2.52311C11.2759 2.37217 10.6471 2.29199 10 2.29199ZM8.12485 17.478C8.72533 17.6286 9.35352 17.7087 10 17.7087C10.6459 17.7087 11.2735 17.6288 11.8735 17.4784C11.8758 17.419 11.8871 17.359 11.9083 17.3001C12.2474 16.281 12.5131 15.2397 12.7054 14.1857C11.8075 14.2845 10.9044 14.3337 10 14.3337C9.09521 14.3337 8.19165 14.2844 7.29378 14.1855C7.48615 15.2421 7.75212 16.2863 8.09169 17.3087C8.111 17.3642 8.12191 17.4211 8.12485 17.478ZM2.52278 8.12356C2.57867 8.12076 2.63533 8.11054 2.69151 8.09229C3.71407 7.75204 4.75942 7.48568 5.81768 7.29322C5.61918 9.09063 5.61913 10.9087 5.81754 12.7061C4.76224 12.5138 3.71979 12.248 2.70002 11.9087C2.64177 11.8884 2.58198 11.8774 2.52228 11.8751C2.37168 11.2748 2.29169 10.6467 2.29169 10.0003C2.29169 9.35325 2.37186 8.72452 2.52278 8.12356ZM3.04759 6.6729C3.78618 5.13607 5.01969 3.88015 6.54012 3.11313C6.58429 3.09085 6.6287 3.06898 6.67336 3.04753L6.65002 3.12533C6.37391 4.06799 6.15606 5.02623 5.99649 5.99349C5.00159 6.15808 4.0162 6.38455 3.04759 6.6729ZM12.903 7.09834C10.9776 6.85732 9.02303 6.85694 7.09754 7.09719C6.85656 9.02222 6.85641 10.9763 7.09706 12.9026C9.02241 13.1436 10.9769 13.144 12.9024 12.9037C13.1434 10.9787 13.1436 9.02468 12.903 7.09834ZM17.2998 8.09229C16.2816 7.75348 15.2408 7.48795 14.1872 7.29569C14.3856 9.09313 14.3848 10.911 14.1847 12.7073C15.2421 12.5148 16.2866 12.2486 17.3084 11.9087C17.3639 11.8894 17.4208 11.8784 17.4777 11.8755C17.6283 11.275 17.7084 10.6468 17.7084 10.0003C17.7084 9.35387 17.6283 8.72573 17.4777 8.12529C17.4184 8.12356 17.3591 8.11452 17.2998 8.09229ZM13.3306 3.04942C13.6182 4.01696 13.844 5.00121 14.0082 5.99493C15.0023 6.1599 15.9866 6.38676 16.9537 6.67552C16.1944 5.09414 14.9113 3.80996 13.3306 3.04942ZM6.54012 16.8875C5.0634 16.1426 3.85734 14.9364 3.11251 13.4596C3.09145 13.4178 3.07075 13.3759 3.05043 13.3337L3.12502 13.3503C4.06917 13.6286 5.02822 13.8474 5.99649 14.0072C6.15607 14.9744 6.37391 15.9327 6.65002 16.8753L6.67061 16.9518C6.62688 16.9308 6.58339 16.9093 6.54012 16.8875ZM13.3222 16.9553C13.6116 15.9874 13.839 15.0023 14.0044 14.0073C14.9741 13.8475 15.9354 13.6287 16.8834 13.3503L16.9496 13.3337C16.9311 13.372 16.9124 13.4102 16.8933 13.4482C16.1259 14.9759 14.8654 16.2151 13.3222 16.9553Z" fill="#4B5565"/>
</svg>
