<svg width="162" height="48" viewBox="0 0 162 48" fill="none" xmlns="http://www.w3.org/2000/svg">
<g clip-path="url(#clip0_487_30037)">
<path d="M155.774 47.8809H6.10633C2.81364 47.8809 0.119629 45.1943 0.119629 41.9107V6.08981C0.119629 2.80623 2.81364 0.119663 6.10633 0.119663H155.774C159.066 0.119663 161.76 2.80623 161.76 6.08981V41.9107C161.76 45.1943 159.066 47.8809 155.774 47.8809Z" fill="black"/>
<path d="M155.774 0.119663H6.10633C2.81364 0.119663 0.119629 2.80623 0.119629 6.08981V41.9107C0.119629 45.1943 2.81364 47.8809 6.10633 47.8809H155.774C159.066 47.8809 161.76 45.1943 161.76 41.9107V6.08981C161.76 2.80623 159.066 0.119663 155.774 0.119663ZM155.774 1.07489C158.547 1.07489 160.803 3.32492 160.803 6.08981V41.9107C160.803 44.6761 158.547 46.9261 155.774 46.9261H6.10633C3.33377 46.9261 1.0775 44.6761 1.0775 41.9107V6.08981C1.0775 3.32492 3.33377 1.07489 6.10633 1.07489H155.774Z" fill="#A6A6A6"/>
<path d="M56.8954 12.3513C56.8954 13.3516 56.5983 14.1483 56.0034 14.7426C55.3276 15.4492 54.4468 15.8027 53.3641 15.8027C52.3272 15.8027 51.4456 15.4445 50.7206 14.7272C49.9943 14.0103 49.6318 13.1213 49.6318 12.0606C49.6318 10.9995 49.9943 10.111 50.7206 9.39366C51.4456 8.67676 52.3272 8.31808 53.3641 8.31808C53.8786 8.31808 54.3711 8.41837 54.8388 8.61849C55.3065 8.81909 55.6816 9.08536 55.9623 9.41885L55.3308 10.0489C54.8552 9.48226 54.2004 9.19915 53.3641 9.19915C52.6078 9.19915 51.954 9.46411 51.4021 9.99438C50.8501 10.5252 50.5743 11.2136 50.5743 12.0606C50.5743 12.9077 50.8501 13.596 51.4021 14.1269C51.954 14.6572 52.6078 14.9221 53.3641 14.9221C54.1663 14.9221 54.8351 14.6557 55.3706 14.1223C55.7181 13.7747 55.9192 13.2916 55.9729 12.6712H53.3641V11.8106H56.8453C56.879 11.9977 56.8954 12.1773 56.8954 12.3513Z" fill="white"/>
<path d="M56.8955 12.351H56.7758C56.7748 13.3286 56.4885 14.0878 55.9188 14.6579L55.9175 14.6588L55.917 14.6598C55.2627 15.3421 54.4217 15.6816 53.3642 15.6831C52.3549 15.6816 51.5102 15.3384 50.8049 14.6425C50.1011 13.9452 49.753 13.0939 49.7517 12.0604C49.753 11.0264 50.1011 10.1756 50.8049 9.47877C51.5102 8.78241 52.3549 8.43865 53.3642 8.43722C53.8632 8.43722 54.3384 8.53429 54.7916 8.72784C55.2453 8.92283 55.6037 9.17835 55.8707 9.4956L55.9624 9.41859L55.8777 9.33417L55.2463 9.96474L55.3309 10.0487L55.4231 9.97226C54.9254 9.37752 54.2267 9.0777 53.3642 9.07949C52.5799 9.07853 51.89 9.35793 51.3193 9.90838C50.7432 10.4606 50.4537 11.1877 50.4546 12.0604C50.4537 12.9331 50.7432 13.6601 51.3193 14.2124C51.89 14.7628 52.5799 15.0422 53.3642 15.0413C54.193 15.0427 54.8993 14.7624 55.4553 14.2064C55.8267 13.8351 56.0372 13.3207 56.0924 12.6812L56.1036 12.5515H53.4839V11.9298H56.8454V11.8104L56.7275 11.8314C56.7603 12.0124 56.7758 12.1844 56.7758 12.351H56.8955H57.0152C57.0152 12.1695 56.9983 11.983 56.9633 11.789L56.9455 11.6909H53.2444V12.6709V12.7903H55.973V12.6709L55.8538 12.6606C55.801 13.2615 55.6092 13.7139 55.286 14.0376C54.7715 14.5487 54.1402 14.801 53.3642 14.8025C52.6359 14.8015 52.0181 14.5515 51.4854 14.0408C50.9579 13.5319 50.6954 12.8822 50.6941 12.0604C50.6954 11.2385 50.9579 10.5889 51.4854 10.08C52.0181 9.56928 52.6359 9.31925 53.3642 9.31829C54.1738 9.3202 54.7852 9.58695 55.2393 10.1257L55.3235 10.2255L56.047 9.50301L56.1246 9.42563L56.054 9.34205C55.7598 8.99232 55.3679 8.71471 54.8861 8.50862C54.4035 8.30193 53.8941 8.19841 53.3642 8.19841C52.2997 8.19746 51.3811 8.57059 50.636 9.30898C49.8882 10.0459 49.5113 10.9723 49.5122 12.0604C49.5113 13.148 49.8882 14.0748 50.6365 14.8123C51.3811 15.5502 52.2997 15.9228 53.3642 15.9219C54.4727 15.9228 55.3922 15.5557 56.09 14.8248L56.0035 14.7423L56.0881 14.8267C56.7083 14.2087 57.0161 13.3738 57.0152 12.351H56.8955Z" fill="white"/>
<path d="M62.4146 9.35852H59.143V11.63H62.0934V12.4909H59.143V14.7625H62.4146V15.6426H58.2207V8.4784H62.4146V9.35852Z" fill="white"/>
<path d="M62.4142 9.35826V9.23885H59.0229V11.7492H61.9733V12.3709L59.0229 12.3713V14.8816H62.2945V15.5229H58.3401V8.59754H62.2945V9.35826H62.4142V9.23885V9.35826H62.534V8.47814V8.35873H58.1006V15.7617H62.534V14.7622V14.6428H59.2624V12.6101H62.2127V11.6298V11.5104H59.2624V9.47766H62.534V9.35826H62.4142Z" fill="white"/>
<path d="M66.3072 15.6426H65.3835V9.35852H63.377V8.4784H68.3137V9.35852H66.3072V15.6426Z" fill="white"/>
<path d="M66.3073 15.6423V15.5229H65.5033V9.23885H63.4968V8.59754H68.1941V9.23885H66.1876V15.6423H66.3073V15.5229V15.6423H66.427V9.47766H68.4335V8.47814V8.35873H63.2573V9.35826V9.47766H65.2638V15.7617H66.3073H66.427V15.6423H66.3073Z" fill="white"/>
<path d="M71.8857 15.6426V8.4784H72.8085V15.6426H71.8857Z" fill="white"/>
<path d="M71.8858 15.6423H72.0056V8.59754H72.6889V15.5229H71.8858V15.6423H72.0056H71.8858V15.7617H72.8086H72.9284V8.35873H71.8858H71.7661V15.7617H71.8858V15.6423Z" fill="white"/>
<path d="M76.9033 15.6426H75.9795V9.35852H73.9731V8.4784H78.9098V9.35852H76.9033V15.6426Z" fill="white"/>
<path d="M76.9034 15.6423V15.5229H76.0994V9.23885H74.093V8.59754H78.7901V9.23885H76.7836V15.6423H76.9034V15.5229V15.6423H77.0231V9.47766H79.0296V8.47814V8.35873H73.8535V9.35826V9.47766H75.8599V15.7617H76.9034H77.0231V15.6423H76.9034Z" fill="white"/>
<path d="M83.6691 14.1171C84.2008 14.654 84.8514 14.9221 85.6208 14.9221C86.3902 14.9221 87.0412 14.654 87.5721 14.1171C88.1043 13.5803 88.371 12.8941 88.371 12.0606C88.371 11.2272 88.1043 10.541 87.5721 10.0042C87.0412 9.46733 86.3902 9.19915 85.6208 9.19915C84.8514 9.19915 84.2008 9.46733 83.6691 10.0042C83.1382 10.541 82.8716 11.2272 82.8716 12.0606C82.8716 12.8941 83.1382 13.5803 83.6691 14.1171ZM88.255 14.7169C87.5487 15.4412 86.6703 15.8027 85.6208 15.8027C84.5703 15.8027 83.6924 15.4412 82.9876 14.7169C82.2809 13.9934 81.9292 13.1078 81.9292 12.0606C81.9292 11.0135 82.2809 10.1277 82.9876 9.4044C83.6924 8.67999 84.5703 8.31808 85.6208 8.31808C86.6648 8.31808 87.5408 8.6819 88.2503 9.40906C88.9589 10.1362 89.3134 11.02 89.3134 12.0606C89.3134 13.1078 88.9597 13.9934 88.255 14.7169Z" fill="white"/>
<path d="M83.6692 14.1169L83.584 14.2008C84.1355 14.7591 84.8235 15.0427 85.6209 15.0413C86.4179 15.0427 87.1068 14.7591 87.6574 14.2008C88.2125 13.642 88.4917 12.919 88.4908 12.0604C88.4917 11.2018 88.2125 10.4788 87.6574 9.91996C87.1068 9.36164 86.4179 9.07805 85.6209 9.07949C84.8235 9.07805 84.1355 9.36164 83.584 9.91996C83.0303 10.4788 82.7506 11.2018 82.752 12.0604C82.7506 12.919 83.0303 13.642 83.584 14.2008L83.6692 14.1169L83.7543 14.0329C83.2464 13.5175 82.9924 12.8691 82.9915 12.0604C82.9924 11.2517 83.2464 10.6033 83.7543 10.0878C84.2669 9.5725 84.8791 9.31973 85.6209 9.31829C86.3622 9.31973 86.9759 9.5725 87.4871 10.0878C87.996 10.6033 88.2499 11.2517 88.2509 12.0604C88.2499 12.8691 87.996 13.5175 87.4871 14.0329C86.9759 14.5483 86.3622 14.801 85.6209 14.8025C84.8791 14.801 84.2669 14.5483 83.7543 14.0329L83.6692 14.1169ZM88.2551 14.7166L88.1695 14.6336C87.4829 15.3351 86.6434 15.6816 85.6209 15.6831C84.5981 15.6816 83.7585 15.3351 83.0732 14.6336L83.07 14.6299L83.0732 14.6336C82.3881 13.9298 82.05 13.0809 82.049 12.0604C82.05 11.0398 82.3881 10.191 83.0732 9.48713C83.7585 8.78564 84.5981 8.43865 85.6209 8.43722C86.6368 8.43865 87.4744 8.78707 88.1648 9.49226C88.8523 10.1994 89.1924 11.0469 89.1938 12.0604C89.1924 13.0809 88.8533 13.9298 88.1695 14.6336L88.2551 14.7166L88.3412 14.7996C89.067 14.0562 89.4341 13.1341 89.4333 12.0604C89.4341 10.9928 89.0656 10.0726 88.3364 9.32581C87.6069 8.5762 86.6929 8.1971 85.6209 8.19841C84.5433 8.1971 83.6267 8.57441 82.9017 9.32116V9.32068C82.1744 10.0646 81.8086 10.9867 81.8096 12.0604C81.8086 13.1341 82.1744 14.0562 82.9017 14.8001L82.9049 14.8034L82.9017 14.7996C83.6267 15.5464 84.5433 15.9228 85.6209 15.9219C86.6981 15.9228 87.6148 15.5464 88.3412 14.7996L88.2551 14.7166Z" fill="white"/>
<path d="M90.6089 15.6426V8.4784H91.7324L95.2238 14.0517H95.2635L95.2238 12.671V8.4784H96.1475V15.6426H95.184L91.5312 9.79923H91.4914L91.5312 11.1804V15.6426H90.6089Z" fill="white"/>
<path d="M90.609 15.6423H90.7287V8.59754H91.666L95.1574 14.1708H95.2636H95.3866L95.3436 12.6689V8.59754H96.0279V15.5229H95.2506L91.5978 9.67957H91.4915H91.3686L91.4116 11.182V15.5229H90.609V15.6423H90.7287H90.609V15.7617H91.5313H91.651V11.1782L91.6113 9.79575L91.4915 9.79897V9.91838H91.5313V9.79897L91.4298 9.86249L95.1177 15.7617H96.1476H96.2674V8.35873H95.2239H95.1042V12.6722L95.1439 14.0546L95.2636 14.0514V13.932H95.2239V14.0514L95.3254 13.988L91.7988 8.35873H90.609H90.4893V15.7617H90.609V15.6423Z" fill="white"/>
<path d="M128.158 35.9415H130.393V21.0147H128.158V35.9415ZM148.282 26.3916L145.721 32.8632H145.644L142.986 26.3916H140.58L144.566 35.4368L142.293 40.4681H144.624L150.767 26.3916H148.282ZM135.612 34.2461C134.879 34.2461 133.859 33.8813 133.859 32.9784C133.859 31.8263 135.131 31.3846 136.227 31.3846C137.21 31.3846 137.671 31.5958 138.269 31.8842C138.095 33.2666 136.901 34.2461 135.612 34.2461ZM135.881 26.0651C134.264 26.0651 132.589 26.7759 131.895 28.3506L133.878 29.1761C134.302 28.3506 135.091 28.0814 135.92 28.0814C137.075 28.0814 138.25 28.7731 138.269 30.0021V30.1556C137.864 29.9251 136.998 29.5796 135.939 29.5796C133.802 29.5796 131.625 30.7507 131.625 32.9401C131.625 34.9373 133.378 36.2241 135.341 36.2241C136.844 36.2241 137.671 35.552 138.192 34.7648H138.269V35.9168H140.425V30.1938C140.425 27.5441 138.442 26.0651 135.881 26.0651ZM122.074 28.2087H118.896V23.0922H122.074C123.744 23.0922 124.692 24.4713 124.692 25.6504C124.692 26.8072 123.744 28.2087 122.074 28.2087ZM122.016 21.0147H116.663V35.9415H118.896V30.2862H122.016C124.492 30.2862 126.926 28.4984 126.926 25.6504C126.926 22.8025 124.492 21.0147 122.016 21.0147ZM92.8238 34.2488C91.2803 34.2488 89.988 32.9601 89.988 31.1901C89.988 29.4014 91.2803 28.0931 92.8238 28.0931C94.3476 28.0931 95.5435 29.4014 95.5435 31.1901C95.5435 32.9601 94.3476 34.2488 92.8238 34.2488ZM95.3892 27.2275H95.312C94.8106 26.6313 93.8457 26.0927 92.6307 26.0927C90.0844 26.0927 87.7505 28.3239 87.7505 31.1901C87.7505 34.0371 90.0844 36.2493 92.6307 36.2493C93.8457 36.2493 94.8106 35.7106 95.312 35.0954H95.3892V35.8263C95.3892 37.7694 94.3476 38.8081 92.6694 38.8081C91.2999 38.8081 90.4511 37.8267 90.1035 36.9998L88.1556 37.8076C88.715 39.1541 90.2004 40.8086 92.6694 40.8086C95.2928 40.8086 97.5111 39.2694 97.5111 35.5184V26.4005H95.3892V27.2275ZM99.0541 35.9415H101.292V21.0142H99.0541V35.9415ZM104.59 31.0171C104.532 29.0548 106.114 28.0548 107.252 28.0548C108.14 28.0548 108.892 28.497 109.142 29.1323L104.59 31.0171ZM111.535 29.3244C111.111 28.1891 109.818 26.0927 107.175 26.0927C104.552 26.0927 102.372 28.1509 102.372 31.171C102.372 34.018 104.532 36.2493 107.426 36.2493C109.76 36.2493 111.111 34.8258 111.67 33.9988L109.934 32.8444C109.355 33.691 108.564 34.2488 107.426 34.2488C106.288 34.2488 105.478 33.7293 104.957 32.7101L111.766 29.9014L111.535 29.3244ZM57.2853 27.6509V29.8053H62.4548C62.3005 31.0171 61.8954 31.9018 61.2781 32.5175C60.526 33.2679 59.3493 34.0949 57.2853 34.0949C54.1024 34.0949 51.6142 31.5366 51.6142 28.3626C51.6142 25.1887 54.1024 22.63 57.2853 22.63C59.0022 22.63 60.2557 23.3034 61.1817 24.1691L62.7055 22.6495C61.4133 21.4181 59.6963 20.4756 57.2853 20.4756C52.9257 20.4756 49.2607 24.0152 49.2607 28.3626C49.2607 32.7101 52.9257 36.2493 57.2853 36.2493C59.6388 36.2493 61.4133 35.4802 62.8019 34.0371C64.2294 32.6136 64.6733 30.6131 64.6733 28.9975C64.6733 28.497 64.6348 28.0357 64.5572 27.6509H57.2853ZM70.5505 34.2488C69.007 34.2488 67.6759 32.9792 67.6759 31.171C67.6759 29.3435 69.007 28.0931 70.5505 28.0931C72.0934 28.0931 73.4245 29.3435 73.4245 31.171C73.4245 32.9792 72.0934 34.2488 70.5505 34.2488ZM70.5505 26.0927C67.7339 26.0927 65.4384 28.2278 65.4384 31.171C65.4384 34.0949 67.7339 36.2493 70.5505 36.2493C73.3665 36.2493 75.6621 34.0949 75.6621 31.171C75.6621 28.2278 73.3665 26.0927 70.5505 26.0927ZM81.7016 34.2488C80.1587 34.2488 78.8275 32.9792 78.8275 31.171C78.8275 29.3435 80.1587 28.0931 81.7016 28.0931C83.2446 28.0931 84.5757 29.3435 84.5757 31.171C84.5757 32.9792 83.2446 34.2488 81.7016 34.2488ZM81.7016 26.0927C78.8851 26.0927 76.59 28.2278 76.59 31.171C76.59 34.0949 78.8851 36.2493 81.7016 36.2493C84.5177 36.2493 86.8133 34.0949 86.8133 31.171C86.8133 28.2278 84.5177 26.0927 81.7016 26.0927Z" fill="white"/>
<path d="M12.7036 38.793L12.6147 38.7081C12.2662 38.3404 12.0605 37.7696 12.0605 37.0303V37.2043V10.7971C12.0605 10.7948 12.0605 10.793 12.0605 10.7911C12.0605 10.7933 12.0605 10.7952 12.0605 10.7976V10.9721C12.0605 10.1716 12.3004 9.56861 12.7022 9.20706L27.537 24.0005L12.7036 38.793ZM12.0605 10.7896C12.0605 10.7238 12.0623 10.66 12.0657 10.597C12.0623 10.6595 12.0605 10.7238 12.0605 10.7896ZM12.0657 10.5942C12.0657 10.5933 12.0657 10.5924 12.0661 10.5914C12.0657 10.5924 12.0657 10.5933 12.0657 10.5942ZM12.0661 10.5858C12.0661 10.5853 12.0661 10.5849 12.0661 10.5844C12.0661 10.5849 12.0661 10.5853 12.0661 10.5858Z" fill="url(#paint0_linear_487_30037)"/>
<path d="M32.4808 29.1094L32.5936 29.0455L38.452 25.726C39.0106 25.4093 39.3829 25.0254 39.5686 24.6192C39.3833 25.0254 39.011 25.4098 38.452 25.7264L32.5936 29.046L32.4808 29.1094ZM32.4822 28.9345L27.5366 24.0017L32.4818 19.0697L38.452 22.4522C39.2102 22.8818 39.6359 23.4355 39.707 24.0012C39.707 24.0017 39.707 24.0026 39.707 24.0035C39.6359 24.5679 39.2102 25.122 38.452 25.5515L32.4822 28.9345Z" fill="url(#paint1_linear_487_30037)"/>
<path d="M13.761 39.3574C13.3466 39.3574 12.985 39.2231 12.703 38.9694L12.7035 38.9689C12.9855 39.2226 13.3475 39.3574 13.7619 39.3574C13.7979 39.3574 13.8344 39.3565 13.8714 39.3547C13.8339 39.3565 13.7969 39.3574 13.761 39.3574ZM13.7615 39.1825C13.3471 39.183 12.9855 39.0482 12.7035 38.7944V38.7941L27.5368 24.0016L32.4825 28.9344L15.1028 38.7819C14.622 39.0538 14.1664 39.1825 13.7615 39.1825ZM12.6993 38.9661C12.6731 38.9424 12.6473 38.9172 12.6221 38.891L12.6993 38.9661Z" fill="url(#paint2_linear_487_30037)"/>
<path d="M27.5369 24.002L12.7021 9.20852C12.9841 8.95527 13.3452 8.82094 13.7592 8.82094C14.1652 8.82094 14.6211 8.95014 15.1029 9.22249L32.4821 19.07L27.5369 24.002ZM32.5939 18.9586L15.1029 9.04816C14.6211 8.77569 14.1652 8.64649 13.7592 8.64649C13.7572 8.64649 13.7559 8.64649 13.754 8.64649C13.7564 8.64649 13.7582 8.64649 13.7611 8.64649C14.1661 8.64649 14.6216 8.77521 15.1029 9.04769L32.5939 18.9586Z" fill="url(#paint3_linear_487_30037)"/>
<path d="M13.8711 39.3535C14.2475 39.332 14.6643 39.2028 15.1026 38.9552L32.4808 29.1081L15.1026 38.9552C14.6647 39.2033 14.2475 39.332 13.8711 39.3535ZM12.7027 38.9682L12.699 38.965C12.7003 38.9659 12.7018 38.9672 12.7027 38.9682ZM12.6218 38.8899L12.6143 38.8825V38.882C12.6171 38.8847 12.6194 38.8875 12.6218 38.8899Z" fill="black"/>
<path d="M32.481 29.1094L32.5937 29.0455L32.481 29.1094Z" fill="url(#paint4_linear_487_30037)"/>
<path d="M13.7617 39.3574C13.3473 39.3574 12.9852 39.2226 12.7032 38.9689L12.7027 38.9694C12.7018 38.9684 12.7003 38.9671 12.699 38.9661L12.6218 38.891C12.6194 38.8886 12.6171 38.8859 12.6143 38.8832L12.7032 38.7944C12.9852 39.0482 13.3468 39.183 13.7612 39.1825C14.1661 39.1825 14.6217 39.0538 15.1026 38.7819L32.4822 28.9344L32.5935 29.0454L32.4808 29.1093L15.1026 38.9563C14.6643 39.204 14.2475 39.3332 13.8711 39.3547C13.8341 39.3565 13.7976 39.3574 13.7617 39.3574Z" fill="url(#paint5_linear_487_30037)"/>
<path d="M12.6147 38.8828C12.2662 38.5152 12.0605 37.9443 12.0605 37.2051V37.2046C12.0605 37.9443 12.2662 38.5147 12.6147 38.8823V38.8828Z" fill="black"/>
<path d="M12.6147 38.8828C12.2662 38.5152 12.0605 37.9448 12.0605 37.2051V37.0311C12.0605 37.7703 12.2662 38.3412 12.6147 38.7088L12.7036 38.7937L12.6147 38.8828Z" fill="url(#paint6_linear_487_30037)"/>
<path d="M12.6143 38.8828L12.7032 38.7937V38.7941L12.6143 38.8828Z" fill="url(#paint7_linear_487_30037)"/>
<path d="M39.5688 24.6191C39.6609 24.4176 39.7073 24.2105 39.7073 24.0034C39.7073 24.003 39.7073 24.0025 39.7073 24.0025C39.7073 24.2101 39.6609 24.4171 39.5688 24.6191Z" fill="black"/>
<path d="M32.5938 29.0449L32.4824 28.9339L38.4522 25.5509C39.2104 25.1215 39.636 24.5673 39.7072 24.0029C39.7072 24.2101 39.6608 24.4171 39.5688 24.6186C39.383 25.0249 39.0108 25.4087 38.4522 25.7254L32.5938 29.0449Z" fill="url(#paint8_linear_487_30037)"/>
<path d="M39.7071 24.002V24.0015C39.7067 23.3769 39.2881 22.7524 38.4522 22.2785L32.5937 18.959H32.5933L32.5937 18.9586L38.4522 22.278C39.289 22.7519 39.7081 23.3774 39.7071 24.002Z" fill="#404040"/>
<path d="M39.7072 24C39.636 23.4343 39.2104 22.8806 38.4522 22.451L32.4819 19.0685L32.5933 18.9575H32.5938L38.4522 22.277C39.2881 22.7509 39.7067 23.3754 39.7072 24Z" fill="url(#paint9_linear_487_30037)"/>
<path d="M12.0605 10.791C12.0605 10.7905 12.0605 10.7901 12.0605 10.7896C12.0605 10.7901 12.0605 10.7905 12.0605 10.791ZM12.0657 10.597C12.0657 10.596 12.0657 10.5951 12.0657 10.5941C12.0657 10.5951 12.0657 10.596 12.0657 10.597ZM12.0661 10.5914C12.0661 10.5895 12.0661 10.5877 12.0661 10.5858C12.0661 10.5877 12.0661 10.5895 12.0661 10.5914ZM12.0661 10.5843C12.1354 9.35771 12.8042 8.64917 13.7504 8.64499C13.3401 8.64738 12.9829 8.78171 12.7032 9.03305V9.03257L12.6998 9.03591C12.6704 9.06242 12.6423 9.09048 12.6147 9.11938C12.3004 9.45096 12.1021 9.94767 12.0661 10.5843Z" fill="#404040"/>
<path d="M12.0605 10.9727V10.7982C12.0605 10.7958 12.0605 10.7939 12.0605 10.7916C12.0605 10.7912 12.0605 10.7907 12.0605 10.7902C12.0605 10.7244 12.0623 10.6601 12.0657 10.5976C12.0657 10.5967 12.0657 10.5957 12.0657 10.5947C12.0657 10.5939 12.0657 10.593 12.0661 10.592C12.0661 10.5901 12.0661 10.5883 12.0661 10.5864C12.0661 10.5859 12.0661 10.5854 12.0661 10.585C12.1021 9.9483 12.3004 9.45158 12.6147 9.12L12.7022 9.20764C12.3004 9.56919 12.0605 10.1722 12.0605 10.9727ZM12.6998 9.03654L12.7032 9.03319C12.7022 9.03463 12.7008 9.03558 12.6998 9.03654Z" fill="url(#paint10_linear_487_30037)"/>
<path d="M32.4817 19.0684L15.1026 9.22084C14.6208 8.94848 14.1648 8.81928 13.7588 8.81928C13.3449 8.81928 12.9838 8.95361 12.7018 9.20687L12.6143 9.11922C12.6419 9.09033 12.6699 9.06227 12.6994 9.03576C12.7003 9.03481 12.7018 9.03385 12.7027 9.0329C12.9824 8.78155 13.3397 8.64722 13.7499 8.64484C13.7509 8.64484 13.7522 8.64484 13.7536 8.64484C13.7556 8.64484 13.7569 8.64484 13.7588 8.64484C14.1648 8.64484 14.6208 8.77403 15.1026 9.04651L32.5935 18.957L32.5931 18.9573L32.4817 19.0684Z" fill="url(#paint11_linear_487_30037)"/>
</g>
<defs>
<linearGradient id="paint0_linear_487_30037" x1="26.2216" y1="10.5186" x2="6.18287" y2="30.6129" gradientUnits="userSpaceOnUse">
<stop stop-color="#00A0FF"/>
<stop offset="0.00657445" stop-color="#00A1FF"/>
<stop offset="0.2601" stop-color="#00BEFF"/>
<stop offset="0.5122" stop-color="#00D2FF"/>
<stop offset="0.7604" stop-color="#00DFFF"/>
<stop offset="1" stop-color="#00E3FF"/>
</linearGradient>
<linearGradient id="paint1_linear_487_30037" x1="40.6307" y1="24.0024" x2="11.6587" y2="24.0024" gradientUnits="userSpaceOnUse">
<stop stop-color="#FFE000"/>
<stop offset="0.4087" stop-color="#FFBD00"/>
<stop offset="0.7754" stop-color="#FFA500"/>
<stop offset="1" stop-color="#FF9C00"/>
</linearGradient>
<linearGradient id="paint2_linear_487_30037" x1="29.846" y1="26.7423" x2="2.67204" y2="53.9916" gradientUnits="userSpaceOnUse">
<stop stop-color="#FF3A44"/>
<stop offset="1" stop-color="#C31162"/>
</linearGradient>
<linearGradient id="paint3_linear_487_30037" x1="8.85713" y1="0.330792" x2="20.9914" y2="12.4987" gradientUnits="userSpaceOnUse">
<stop stop-color="#32A071"/>
<stop offset="0.0685" stop-color="#2DA771"/>
<stop offset="0.4762" stop-color="#15CF74"/>
<stop offset="0.8009" stop-color="#06E775"/>
<stop offset="1" stop-color="#00F076"/>
</linearGradient>
<linearGradient id="paint4_linear_487_30037" x1="40.6309" y1="24.0025" x2="11.6589" y2="24.0025" gradientUnits="userSpaceOnUse">
<stop stop-color="#CCB300"/>
<stop offset="0.4087" stop-color="#CC9700"/>
<stop offset="0.7754" stop-color="#CC8400"/>
<stop offset="1" stop-color="#CC7D00"/>
</linearGradient>
<linearGradient id="paint5_linear_487_30037" x1="29.8458" y1="26.7423" x2="2.67178" y2="53.9916" gradientUnits="userSpaceOnUse">
<stop stop-color="#CC2E36"/>
<stop offset="1" stop-color="#9C0E4E"/>
</linearGradient>
<linearGradient id="paint6_linear_487_30037" x1="26.2216" y1="10.5193" x2="6.18287" y2="30.6136" gradientUnits="userSpaceOnUse">
<stop stop-color="#008DE0"/>
<stop offset="0.00657445" stop-color="#008DE0"/>
<stop offset="0.2601" stop-color="#00A7E0"/>
<stop offset="0.5122" stop-color="#00B8E0"/>
<stop offset="0.7604" stop-color="#00C4E0"/>
<stop offset="1" stop-color="#00C7E0"/>
</linearGradient>
<linearGradient id="paint7_linear_487_30037" x1="29.8464" y1="26.7421" x2="2.67283" y2="53.9924" gradientUnits="userSpaceOnUse">
<stop stop-color="#E0333C"/>
<stop offset="1" stop-color="#AB0F56"/>
</linearGradient>
<linearGradient id="paint8_linear_487_30037" x1="40.6309" y1="24.0018" x2="11.6589" y2="24.0018" gradientUnits="userSpaceOnUse">
<stop stop-color="#E0C500"/>
<stop offset="0.4087" stop-color="#E0A600"/>
<stop offset="0.7754" stop-color="#E09100"/>
<stop offset="1" stop-color="#E08900"/>
</linearGradient>
<linearGradient id="paint9_linear_487_30037" x1="40.6309" y1="24.0012" x2="11.6589" y2="24.0012" gradientUnits="userSpaceOnUse">
<stop stop-color="#FFE840"/>
<stop offset="0.4087" stop-color="#FFCE40"/>
<stop offset="0.7754" stop-color="#FFBC40"/>
<stop offset="1" stop-color="#FFB540"/>
</linearGradient>
<linearGradient id="paint10_linear_487_30037" x1="26.2216" y1="10.5192" x2="6.18288" y2="30.6134" gradientUnits="userSpaceOnUse">
<stop stop-color="#40B8FF"/>
<stop offset="0.00657445" stop-color="#40B9FF"/>
<stop offset="0.2601" stop-color="#40CEFF"/>
<stop offset="0.5122" stop-color="#40DDFF"/>
<stop offset="0.7604" stop-color="#40E7FF"/>
<stop offset="1" stop-color="#40EAFF"/>
</linearGradient>
<linearGradient id="paint11_linear_487_30037" x1="8.85677" y1="0.329134" x2="20.9911" y2="12.497" gradientUnits="userSpaceOnUse">
<stop stop-color="#65B895"/>
<stop offset="0.0685" stop-color="#62BD95"/>
<stop offset="0.4762" stop-color="#50DB97"/>
<stop offset="0.8009" stop-color="#44ED98"/>
<stop offset="1" stop-color="#40F498"/>
</linearGradient>
<clipPath id="clip0_487_30037">
<rect width="162" height="48" fill="white"/>
</clipPath>
</defs>
</svg>
