<svg width="49" height="48" viewBox="0 0 49 48" fill="none" xmlns="http://www.w3.org/2000/svg">
<path d="M0.864746 8C0.864746 3.58172 4.44647 0 8.86475 0H40.1351C44.5534 0 48.1351 3.58172 48.1351 8V40C48.1351 44.4183 44.5534 48 40.1351 48H8.86475C4.44647 48 0.864746 44.4183 0.864746 40V8Z" fill="#F1F5FA"/>
<g clip-path="url(#clip0_485_23048)">
<path d="M40.1352 24.3555C40.1352 23.0437 40.0288 22.0864 39.7984 21.0938H24.8191V27.0145H33.6116C33.4344 28.4859 32.4771 30.7018 30.3499 32.1907L30.3201 32.389L35.0562 36.058L35.3844 36.0908C38.3979 33.3076 40.1352 29.2127 40.1352 24.3555Z" fill="#4285F4"/>
<path d="M24.8191 39.9551C29.1267 39.9551 32.7429 38.5369 35.3843 36.0906L30.3498 32.1906C29.0026 33.1302 27.1944 33.786 24.8191 33.786C20.6001 33.786 17.0192 31.003 15.7428 27.1562L15.5557 27.1721L10.6309 30.9834L10.5665 31.1625C13.1901 36.3742 18.5791 39.9551 24.8191 39.9551Z" fill="#34A853"/>
<path d="M15.7427 27.1546C15.4059 26.1619 15.211 25.0982 15.211 23.9991C15.211 22.9 15.4059 21.8364 15.725 20.8437L15.7161 20.6323L10.7296 16.7598L10.5665 16.8374C9.4852 19.0001 8.86475 21.4287 8.86475 23.9991C8.86475 26.5695 9.4852 28.9981 10.5665 31.1608L15.7427 27.1546Z" fill="#FBBC05"/>
<path d="M24.8191 14.2139C27.8149 14.2139 29.8357 15.5079 30.988 16.5894L35.4907 12.193C32.7253 9.62263 29.1267 8.04492 24.8191 8.04492C18.5791 8.04492 13.1901 11.6257 10.5665 16.8374L15.7251 20.8438C17.0192 16.997 20.6001 14.2139 24.8191 14.2139Z" fill="#EB4335"/>
</g>
<defs>
<clipPath id="clip0_485_23048">
<rect width="31.2704" height="32" fill="white" transform="translate(8.86475 8)"/>
</clipPath>
</defs>
</svg>
