<svg width="312" height="200" viewBox="0 0 312 200" fill="none" xmlns="http://www.w3.org/2000/svg">
<g clip-path="url(#clip0_70_2)">
<mask id="mask0_70_2" style="mask-type:luminance" maskUnits="userSpaceOnUse" x="0" y="0" width="312" height="200">
<path d="M0 4C0 1.79086 1.79086 0 4 0H308C310.209 0 312 1.79086 312 4V196C312 198.209 310.209 200 308 200H3.99999C1.79085 200 0 198.209 0 196V4Z" fill="white"/>
</mask>
<g mask="url(#mask0_70_2)">
<path d="M0 4C0 1.79086 1.79086 0 4 0H308C310.209 0 312 1.79086 312 4V196C312 198.209 310.209 200 308 200H3.99999C1.79085 200 0 198.209 0 196V4Z" fill="#AD9EF2"/>
<path d="M148.662 159.781L147.916 165.57L142.844 166.027C142.844 166.027 143.59 182.969 148.599 183.536C169.626 185.922 169.626 166.838 169.626 166.838L163.282 165.216L163.399 152.897" fill="#D16159"/>
<path d="M174.415 164.467L167.859 166.444C167.294 169.547 159.788 173.383 152.667 172.588C145.545 171.792 144.941 165.664 144.941 165.664L136.194 164.995C136.194 164.995 127.62 207.495 128.013 209.74C128.405 211.985 131.57 214.23 131.57 214.23L179.511 217.916C179.511 217.916 182.055 216.553 182.055 212.607C182.055 208.661 174.431 164.467 174.431 164.467H174.415Z" fill="#F5DCC0"/>
<mask id="mask1_70_2" style="mask-type:luminance" maskUnits="userSpaceOnUse" x="128" y="164" width="55" height="54">
<path d="M174.415 164.467L167.859 166.444C167.294 169.547 159.788 173.383 152.667 172.588C145.545 171.792 144.941 165.664 144.941 165.664L136.194 164.995C136.194 164.995 127.62 207.495 128.013 209.74C128.405 211.985 131.57 214.23 131.57 214.23L179.511 217.916C179.511 217.916 182.055 216.553 182.055 212.607C182.055 208.661 174.431 164.467 174.431 164.467H174.415Z" fill="white"/>
</mask>
<g mask="url(#mask1_70_2)">
<path d="M128.64 169.83C128.051 169.239 127.823 168.113 128.326 167.396C128.381 167.317 128.436 167.247 128.483 167.168C129.095 166.301 130.108 165.955 131.074 166.412C131.569 166.254 133.233 166.357 133.602 166.341C134.591 166.294 135.581 166.278 136.57 166.246C138.792 166.175 141.014 166.112 143.244 166.041C147.688 165.908 152.139 165.782 156.583 165.656C161.279 165.522 165.974 165.396 170.669 165.262C174.814 165.144 179.125 164.529 183.129 165.797C185.32 166.49 185.241 169.46 183.129 170.184C178.536 171.76 173.236 171.027 168.439 171.011L153.615 170.972C148.426 170.956 143.236 170.933 138.046 170.901C135.408 170.885 130.697 171.901 128.632 169.838L128.64 169.83ZM124.84 176.525C129.025 178.21 134.034 178.084 138.486 178.376C143.055 178.667 147.625 178.88 152.194 179.022C161.608 179.305 170.983 178.99 180.381 178.376C183.176 178.195 183.239 173.997 180.381 173.965C170.983 173.87 161.577 173.485 152.194 172.996C147.617 172.76 143.047 172.445 138.486 172.051C133.987 171.665 129.323 170.751 124.84 171.531C122.037 172.02 122.767 175.69 124.84 176.525ZM193.87 183.023C188.931 181.912 183.647 182.219 178.607 182.117C173.236 182.015 167.874 181.952 162.503 181.936C151.755 181.904 141.022 182.148 130.281 182.59C128.671 182.653 128.656 185.071 130.281 185.11C140.778 185.378 151.276 185.772 161.773 186.236C166.9 186.465 172.027 186.725 177.146 187.032C182.415 187.347 187.981 188.284 193.242 187.693C195.692 187.418 196.704 183.653 193.87 183.023ZM190.863 191.569C179.156 191.639 167.465 190.631 155.877 188.993C150.459 188.221 145.057 187.386 139.624 186.732C134.317 186.094 127.98 184.905 122.885 186.969C120.694 187.851 120.655 190.615 122.885 191.49C127.776 193.419 133.743 193.034 138.925 193.577C144.759 194.183 150.561 195.05 156.379 195.79C167.882 197.255 179.298 197.578 190.863 196.751C194.137 196.515 194.223 191.553 190.863 191.569ZM156.521 204.62C161.624 205.021 166.704 205.588 171.807 206.006C176.722 206.415 182.179 207.195 186.984 205.809C189.049 205.21 189.426 201.564 186.984 201.217C182.006 200.516 176.84 201.178 171.807 201.036C166.712 200.886 161.624 200.484 156.521 200.288C146.055 199.87 135.62 200.39 125.17 200.941C123.521 201.028 123.497 203.509 125.17 203.533C135.62 203.674 146.102 203.8 156.521 204.62ZM187.605 209.322C176.997 207.211 165.872 208.621 155.099 208.29C149.564 208.117 144.052 207.668 138.533 207.219C133.06 206.77 127.266 205.943 121.825 206.817C118.574 207.337 119.815 211.787 122.539 212.11C128.004 212.756 133.743 212.362 139.263 212.614C144.783 212.858 150.294 213.063 155.814 213.102C166.311 213.181 177.248 214.481 187.605 212.559C189.214 212.26 189.191 209.637 187.605 209.322Z" fill="#E5C9AE"/>
</g>
<path d="M140.461 206.141C147.724 204.747 154.774 202.187 161.244 198.595" stroke="black" stroke-miterlimit="10"/>
<path d="M148.859 199.477C152.283 197.863 155.447 195.705 158.203 193.105" stroke="black" stroke-miterlimit="10"/>
<path d="M143.734 170.674C145.453 173.887 149.135 175.636 152.755 176.022C158.07 176.597 163.598 174.541 167.264 170.634" stroke="black" stroke-miterlimit="10"/>
<path d="M199.564 165.87C211.38 145.06 216.962 133.348 221.438 112.807L206.355 103.3C200.16 123.527 192.741 135.215 182.125 153.236" fill="#D16159"/>
<path d="M120.802 173.486C120.802 173.486 110.925 152.196 110.195 143.044C109.528 134.727 117.591 105.829 117.591 105.829L135.555 106.853L131.386 138.933L140.674 160.734" fill="#D16159"/>
<path d="M147.34 164.468C146.649 179.314 144.679 220.909 144.679 220.909L124.367 213.45L132.258 171.288" fill="#735D9D"/>
<path d="M147.342 164.468C147.342 164.468 143.307 158.97 142.058 157.19C140.802 155.41 136.146 149.463 136.146 149.463L117.664 168.926C117.664 168.926 127.203 187.356 134.128 191.972" fill="#735D9D"/>
<path d="M165.159 164.279C163.589 182.906 163.298 203.636 164.06 222.114L184.081 218.223L182.134 183.591L176.528 160.892C172.956 163.034 165.159 164.279 165.159 164.279Z" fill="#735D9D"/>
<path d="M169.039 163.979C174.496 160.238 180.847 155.244 183.98 149.597L204.323 164.153C204.323 164.153 197.5 179.401 181.711 189.498" fill="#735D9D"/>
<path d="M145.92 177.527C141.405 175.077 136.883 177.786 136.852 177.81C138.288 172.391 141.57 165.161 144.169 160.9" stroke="black" stroke-linejoin="round"/>
<path d="M165.094 177.881C169.609 175.431 174.131 178.141 174.163 178.165C172.726 172.746 171.399 166.539 169.044 163.987" stroke="black" stroke-linejoin="round"/>
<path d="M129.234 187.466L131.542 175.093" stroke="black" stroke-miterlimit="10"/>
<path d="M182.554 189.104L176.422 191.971" stroke="black" stroke-linejoin="round"/>
<path d="M178.789 156.174L198.095 174.179" stroke="black" stroke-linejoin="round"/>
<path d="M140.175 154.677L120.758 174.549" stroke="black" stroke-linejoin="round"/>
<path d="M167.914 176.944L169.626 221.035" stroke="black" stroke-linejoin="round"/>
<path d="M142.839 176.944L139.016 218.83" stroke="black" stroke-linejoin="round"/>
<path d="M165.148 181.181H167.08" stroke="black" stroke-linejoin="round"/>
<path d="M164.547 196.753H166.478" stroke="black" stroke-linejoin="round"/>
<path d="M145.689 180.228C145.689 180.756 145.265 181.181 144.739 181.181C144.213 181.181 143.789 180.756 143.789 180.228C143.789 179.7 144.213 179.275 144.739 179.275C145.265 179.275 145.689 179.7 145.689 180.228Z" fill="black"/>
<path d="M145.119 195.13C145.119 195.658 144.695 196.083 144.169 196.083C143.643 196.083 143.219 195.658 143.219 195.13C143.219 194.602 143.643 194.177 144.169 194.177C144.695 194.177 145.119 194.602 145.119 195.13Z" fill="black"/>
<path d="M204.609 111.342C204.091 108.53 203.651 105.671 203.793 102.804C203.863 101.402 204.075 100.008 204.507 98.669C204.923 97.3931 206.164 96.6212 207.098 95.7233C207.805 95.0459 208.59 94.3686 209.548 94.1874C209.909 93.006 210.639 91.8797 211.754 91.3598C212.869 90.84 214.384 91.1156 215.028 92.1711C215.687 91.4858 216.724 91.2023 217.643 91.4543C218.553 91.7064 219.299 92.494 219.511 93.4155C220.061 93.0847 220.815 93.3683 221.215 93.8723C221.615 94.3764 221.757 95.0302 221.882 95.6681C222.495 95.4712 223.186 95.6996 223.672 96.1171C224.159 96.5345 224.465 97.1331 224.701 97.7317C225.918 100.874 225.251 104.45 224.041 107.593C222.832 110.735 221.097 113.681 220.124 116.903" fill="#D16159"/>
<path d="M209.827 94.2815C210.039 94.2264 210.258 94.1791 210.47 94.124C211.271 93.9271 211.538 94.7619 211.413 95.4551C211.318 95.967 211.044 96.416 210.745 96.8492C210.266 97.5502 209.748 98.2196 209.183 98.8576C209.112 98.9364 209.041 99.023 209.034 99.1254C209.018 99.2357 209.081 99.3381 209.136 99.4326C210.659 101.969 211.46 104.938 211.413 107.9" stroke="black" stroke-miterlimit="10"/>
<path d="M214.864 92.4541C215.005 94.6594 215.123 96.9829 214.173 98.9835C214.032 99.2907 213.851 99.59 213.6 99.8184C212.862 100.488 211.669 100.339 210.828 99.8026" stroke="black" stroke-miterlimit="10"/>
<path d="M221.874 95.9043C221.961 96.9597 221.945 98.0388 221.749 99.0785C221.568 100.008 221.301 101.182 220.422 101.701C219.558 102.205 218.098 101.859 217.344 101.205" stroke="black" stroke-miterlimit="10"/>
<path d="M219.404 93.5732C219.42 95.6132 219.396 97.724 218.564 99.5828C218.281 100.213 217.873 100.843 217.253 101.134C216.617 101.434 215.87 101.347 215.195 101.166C214.52 100.977 213.797 100.63 213.562 99.9688" stroke="black" stroke-miterlimit="10"/>
<path d="M220.023 101.607C220.55 102.363 221.17 103.001 222.175 102.906C222.889 102.835 223.439 102.363 223.847 101.804C224.012 101.575 224.177 101.347 224.342 101.118" stroke="black" stroke-miterlimit="10"/>
<path d="M214.953 108.672C216.421 106.781 218.266 105.19 220.347 104.017" stroke="black" stroke-miterlimit="10"/>
<path d="M134.127 119.179C133.711 112.957 138.351 107.451 138.932 101.237C139.019 100.323 139.011 99.4014 139.152 98.4877C139.466 96.4635 140.487 94.5023 140.212 92.4702C139.788 92.1237 139.136 92.1946 138.673 92.4702C137.244 93.3366 136.702 95.3057 135.87 96.6525C135.737 96.8652 135.603 97.0779 135.399 97.2118C135.195 97.3457 134.889 97.3614 134.716 97.1881C134.583 97.0463 134.559 96.8337 134.559 96.6368C134.535 95.479 135.768 88.2092 135.768 85.9959C135.768 84.8539 135.737 83.696 135.368 82.617C135.313 82.4673 135.25 82.3098 135.124 82.2153C134.7 81.9002 134.206 82.5146 134.025 83.0187C133.083 85.7124 131.67 91.9977 131.67 91.9977C131.67 91.9977 131.874 85.484 131.701 81.8372C131.678 81.3962 131.662 80.9393 131.45 80.5534C131.23 80.1675 130.759 79.8918 130.351 80.0414C129.919 80.199 129.746 80.7109 129.628 81.1599C128.827 84.334 128.364 88.1225 127.563 91.2967C127.736 89.0047 127.563 86.0983 127.736 83.8063C127.775 83.2865 127.815 82.7351 127.587 82.2547C127.359 81.7742 126.88 81.0417 126.307 81.6482C125.734 82.2547 123.606 92.4387 123.606 92.4387C123.606 92.4387 123.669 87.3664 123.716 84.8932C123.716 84.523 123.716 84.1135 123.457 83.8457C123.088 83.4676 122.625 83.1605 122.287 83.5621C121.95 83.9638 121.635 84.9878 121.541 85.5076C120.638 90.2964 119.068 97.007 118.087 101.772C116.917 107.467 116.477 111.602 117.042 117.391" fill="#D16159"/>
<path d="M133.617 116.123C133.813 115.146 134.158 114.201 134.637 113.327" stroke="black" stroke-miterlimit="10"/>
<path d="M123.609 93.9434C123.947 96.3693 124.536 98.7479 124.857 101.174C125.171 103.6 125.203 106.12 124.418 108.436" stroke="black" stroke-miterlimit="10"/>
<path d="M134.443 98.3857C132.174 100.93 130.674 104.151 130.18 107.53" stroke="black" stroke-miterlimit="10"/>
<path d="M127.588 90.6826L127.352 93.9434" stroke="black" stroke-miterlimit="10"/>
<path d="M131.612 91.0605C131.36 92.108 131.195 93.1713 131.109 94.2425" stroke="black" stroke-miterlimit="10"/>
<path d="M225.703 91.2422C228.011 93.4869 229.157 96.8737 228.686 100.071" stroke="black" stroke-linejoin="round"/>
<path d="M226.891 85.7129C229.035 87.0755 230.527 89.4384 230.833 91.9667" stroke="black" stroke-linejoin="round"/>
<path d="M122.426 155.843C123.619 157.284 126.454 160.222 126.799 162.27C126.886 162.168 126.98 162.073 127.098 161.994C128.04 161.356 129.265 162.12 130.136 162.845C131.039 161.191 133.63 160.821 134.957 162.168C135.09 161.112 135.899 160.167 136.92 159.876C137.94 159.584 139.126 159.954 139.793 160.781C139.322 159.293 139.731 157.568 140.822 156.449C141.905 155.331 143.625 154.882 145.117 155.323L146.271 158.773C146.287 159.946 145.721 161.112 144.803 161.837C143.876 162.561 142.612 162.821 141.481 162.522C140.838 162.758 141.175 163.475 140.838 164.074C139.864 165.799 137.116 166.121 135.773 164.664C135.451 165.649 134.533 166.413 133.512 166.555C132.484 166.689 131.408 166.192 130.835 165.326C130.112 166.058 128.935 166.287 127.993 165.885C127.16 165.531 126.548 164.704 126.43 163.806C125.048 165.421 120.706 163.916 119.222 162.648C118.956 162.42 118.704 162.152 118.649 161.845C118.602 161.624 118.665 161.404 118.72 161.191C119.026 160.12 119.332 159.041 119.89 158.072C120.408 157.174 121.272 156.142 122.434 155.835L122.426 155.843Z" fill="#19181E"/>
<path d="M148.084 140.256C149.372 138.161 151.194 136.428 153.533 135.569C156.548 134.467 160.144 135.042 163.01 136.326C167.713 138.436 168.412 144.241 167.517 148.754C166.834 152.22 165.805 154.953 163.143 157.371C158.809 161.301 148.485 163.601 145.234 159.529C143.044 156.78 142.84 153.22 143.978 150.038C145.116 146.856 146.231 143.265 148.084 140.248V140.256Z" fill="#D16159"/>
<path d="M150.249 146.068C149.943 146.832 149.543 147.557 149.072 148.227C148.71 148.739 148.302 149.227 148.051 149.802C147.8 150.377 148.2 151.031 148.993 151.377" stroke="black" stroke-miterlimit="10"/>
<path d="M155.18 148.951C154.874 149.566 155.008 150.259 155.479 150.495C155.95 150.731 156.578 150.416 156.884 149.802C157.19 149.187 157.057 148.494 156.586 148.258C156.115 148.022 155.486 148.337 155.18 148.951Z" fill="black"/>
<path d="M146.235 145.58C145.929 146.194 146.063 146.888 146.534 147.124C147.005 147.36 147.633 147.045 147.939 146.431C148.245 145.816 148.112 145.123 147.641 144.887C147.17 144.651 146.542 144.966 146.235 145.58Z" fill="black"/>
<path d="M156.766 144.722C157.693 144.722 158.525 145.06 159.02 145.675C159.522 146.289 159.805 147.077 159.954 147.849" stroke="black" stroke-miterlimit="10"/>
<path d="M150.726 143.336C150.6 142.107 148.88 141.776 147.695 142.414" stroke="black" stroke-miterlimit="10"/>
<path d="M164.935 150.952C164.723 149.77 163.576 148.416 163.168 147.203C162.171 144.21 161.763 140.657 161.763 140.657C161.763 140.657 157.546 141.217 157.272 141.256C154.005 141.705 151.037 141.54 147.92 140.445C147.591 140.327 146.452 140.067 146.342 139.657C145.706 137.286 145.023 135.357 146.295 132.939C147.544 130.568 151.618 129.607 154.94 131.033C159.682 128.355 166.505 129.213 171.082 131.71C175.55 134.144 177.167 138.909 177.795 143.698C178.329 147.817 177.308 151.921 174.372 154.803C173.108 156.04 171.506 156.914 168.845 158.048C167.251 158.726 164.911 158.875 164.911 158.875C165.209 156.843 165.288 154.78 165.139 152.74C165.092 152.117 165.021 151.535 164.919 150.968L164.935 150.952Z" fill="#19181E"/>
<path d="M159.297 159.805C156.934 161.608 152.042 162.845 148.195 161.703" stroke="black" stroke-miterlimit="10"/>
<path d="M151.565 152.307L148.141 153.031C148.157 154.536 149.492 155.181 150.23 155.04C150.662 154.961 151.07 154.725 151.321 154.354C151.714 153.772 151.651 153.008 151.565 152.307Z" fill="white"/>
<path d="M164.109 150.416C164.847 148.762 167.752 148.384 169.071 149.534C172.243 152.291 168.294 158.174 164.588 157.418C163.536 157.206 162.295 156.276 162.397 155.079" fill="#D16159"/>
<path d="M168.139 152.48L163.773 153.984" stroke="black" stroke-miterlimit="10"/>
<path d="M166.08 148.991C165.318 149.164 164.612 149.573 164.086 150.156" stroke="black" stroke-miterlimit="10"/>
<path d="M165.94 157.371C165.163 157.576 164.331 157.663 163.577 157.395C162.823 157.127 162.172 156.442 162.148 155.638" stroke="black" stroke-miterlimit="10"/>
<path d="M187.191 171.469C185.346 171.753 181.279 172.044 179.661 173.344C179.661 173.21 179.661 173.076 179.622 172.942C179.347 171.84 177.926 171.588 176.788 171.548C177.22 169.713 175.524 167.705 173.647 167.823C174.252 166.941 174.275 165.704 173.702 164.798C173.129 163.892 172.006 163.388 170.954 163.554C172.289 162.758 173.137 161.199 173.066 159.639C172.996 158.08 172.014 156.599 170.617 155.93L167.468 157.733C166.675 158.6 166.322 159.844 166.526 161.002C166.738 162.16 167.507 163.199 168.544 163.735C168.866 164.341 168.135 164.656 167.994 165.318C167.578 167.256 169.407 169.327 171.378 169.138C170.962 170.091 171.143 171.273 171.81 172.06C172.485 172.848 173.624 173.202 174.621 172.927C174.676 173.951 175.398 174.911 176.364 175.242C177.22 175.534 178.225 175.321 178.908 174.73C178.868 176.857 183.1 178.637 185.055 178.684C185.409 178.692 185.77 178.653 186.021 178.472C186.202 178.338 186.304 178.133 186.398 177.936C186.885 176.936 187.372 175.927 187.599 174.825C187.811 173.809 187.85 172.462 187.183 171.462L187.191 171.469Z" fill="#19181E"/>
<path d="M96.7401 153.701C94.1883 178.306 94.5808 227.958 94.5808 227.958L34.2188 222.114C35.263 201.888 38.0111 165.869 47.4407 152.385C55.567 140.76 66.1035 142.414 66.1035 142.414L91.4795 144.95L96.7478 153.708L96.7401 153.701Z" fill="#FFC36C"/>
<path d="M48.139 180.133C48.139 180.133 47.2282 197.65 52.9519 205.345C59.5707 214.238 91.6597 218.727 98.7103 219.57L101.129 201.573L72.3843 191.286L70.4214 176.172" fill="#A04B4B"/>
<path d="M70.2317 141.863C66.1332 141.343 60.7078 144.123 56.947 146.061C54.0891 147.533 51.4117 149.668 49.2447 152.385C45.6409 156.891 44.7379 164.57 44.9107 170.501C45.1148 177.605 47.3682 190.955 47.3682 190.955L73.8277 187.553L70.7891 164.05" fill="#FFC36C"/>
<path d="M88.2038 165.161C88.2038 165.161 108.359 158.828 119.303 151.999C131.214 144.572 138.744 116.942 138.744 116.942L124.972 107.861C124.972 107.861 115.04 126.543 107.903 131.285C103.75 134.049 87.4029 137.98 77.0625 142.319" fill="#A04B4B"/>
<path d="M73.9688 140.642C83.3434 138.31 92.7102 135.979 103.466 133.214L109.92 159.671L86.5389 171.107" fill="#FFC36C"/>
<path d="M137.622 119.683C140.072 117.588 142.718 113.799 144.052 110.861C145.222 108.278 146.337 105.616 148.072 103.347C148.543 102.733 150.302 101.449 149.917 100.543C149.14 98.7083 146.125 100.378 145.262 101.221C144.955 101.52 144.61 101.819 144.186 101.906C143.134 102.119 142.985 101.032 143.063 100.276C143.385 97.3457 144.523 94.589 144.877 91.6197C145.073 89.9263 145.12 86.6182 144.209 86.3032C143.283 85.9881 143.228 86.5631 143.016 86.7206C143.04 85.7361 142.38 84.4444 141.76 84.657C141.383 84.7909 141.179 85.1926 141.061 85.5707C140.943 85.9487 140.574 86.6497 140.574 86.6497C140.574 86.6497 140.142 84.4129 138.941 85.3816C138.337 85.87 137.261 88.926 136.593 89.816C136.884 89.1859 136.939 88.5243 136.868 87.7288C136.829 87.2956 136.421 86.886 135.934 87.0199C135.651 87.0987 135.526 87.3428 135.384 87.5791C134.631 88.8708 133.767 90.2177 133.068 91.533C132.338 92.9114 131.608 94.2818 130.878 95.6602C129.504 98.2436 128.122 100.985 126.968 103.733C125.9 106.277 122.586 112.421 122.586 112.421" fill="#A04B4B"/>
<path d="M140.127 117.225C138.972 118.438 137.771 119.62 136.523 120.746" stroke="black" stroke-width="0.75" stroke-miterlimit="10"/>
<path d="M142.996 86.8857C141.677 90.5954 140.343 94.3051 138.984 98.007" stroke="black" stroke-width="0.75" stroke-miterlimit="10"/>
<path d="M140.413 86.6738C138.945 90.1236 137.485 93.5655 136.016 97.0153" stroke="black" stroke-width="0.75" stroke-miterlimit="10"/>
<path d="M136.596 89.7686C135.403 92.0764 134.155 94.3605 132.867 96.6131" stroke="black" stroke-width="0.75" stroke-miterlimit="10"/>
<path d="M98.6698 200.297C101.489 200.407 101.496 200.234 104.307 200.053C106.506 199.911 110.321 199.706 112.088 201.187C112.842 201.817 113.242 202.793 113.972 203.439C114.231 203.668 114.545 203.865 114.687 204.188C114.828 204.503 114.655 204.983 114.31 204.975C115.032 204.983 116.124 205.723 116.524 206.275C116.885 206.771 116.995 207.448 116.807 208.031C116.618 208.614 116.131 209.102 115.55 209.284C116.493 209.567 117.184 210.221 117.458 211.119C117.6 211.591 117.663 212.103 117.498 212.568C117.199 213.411 116.273 213.836 115.448 214.167C116.171 214.687 116.846 215.474 116.728 216.356C116.642 217.018 116.022 217.853 115.496 218.255C114.844 218.743 114.224 218.806 113.462 219.074C113.627 219.019 113.595 219.932 113.58 220.011C113.501 220.31 113.329 220.57 113.132 220.799C112.7 221.295 112.088 221.602 111.452 221.76C110.722 221.941 109.968 221.925 109.214 221.964C108.382 222.012 107.55 222.083 106.718 222.098C104.511 222.138 102.297 221.956 100.146 221.46C97.8532 220.933 95.6313 220.145 93.3936 219.412C93.0796 219.31 92.7655 219.208 92.4514 219.105C92.0118 218.963 91.5721 218.83 91.1402 218.696C90.0489 218.365 89.2481 217.758 88.0703 217.617" fill="#A04B4B"/>
<path d="M96.4453 200.053C97.623 200.25 98.8165 200.36 100.017 200.384" stroke="black" stroke-width="0.75" stroke-miterlimit="10"/>
<path d="M69.8359 150.826C72.3327 154.874 71.5318 160.372 71.7281 164.909C72.0657 172.493 73.1178 180 73.8245 187.561" stroke="black" stroke-miterlimit="10"/>
<path d="M47.3561 190.955L44.8828 168.059" stroke="black" stroke-miterlimit="10"/>
<path d="M46.3906 182.047L72.7087 178.976" stroke="black" stroke-miterlimit="10"/>
<path d="M71.8325 191.318C69.9638 191.2 68.0795 191.263 66.2344 191.499" stroke="black" stroke-miterlimit="10"/>
<path d="M95.7656 166.279C95.7656 162.538 96.8726 159.025 97.4222 155.402" stroke="black" stroke-miterlimit="10"/>
<path d="M102.947 163.089L96.2656 135.057" stroke="black" stroke-miterlimit="10"/>
<path d="M70.2086 124.85L63.3229 129.481L64.8068 134.419L62.8125 141.595C62.8125 141.595 65.8354 149.109 74.4955 149.101C81.8052 149.101 83.2421 143.674 83.2421 143.674L84.1214 133.726" fill="#A04B4B"/>
<path d="M89.4842 128.189C88.6677 124.259 87.8669 119.966 86.6499 117.06C85.6213 114.603 83.7605 111.003 81.3972 109.696C78.3509 108.01 74.59 109.459 71.3159 110.357C65.9298 111.83 64.2182 117.934 64.4223 122.928C64.5794 126.756 65.9691 130.009 68.4266 133.041C71.6378 137.011 79.0811 141.098 85.3387 137.743C88.6598 135.963 90.3636 132.356 89.4999 128.189H89.4842Z" fill="#A04B4B"/>
<path d="M79.9707 122.66C80.1277 123.235 79.8922 123.794 79.4604 123.912C79.0207 124.031 78.5417 123.66 78.3926 123.085C78.2355 122.51 78.4711 121.951 78.9029 121.833C79.3426 121.715 79.8215 122.085 79.9707 122.66Z" fill="black"/>
<path d="M87.3848 120.502C87.5418 121.077 87.3063 121.636 86.8744 121.754C86.4347 121.873 85.9558 121.502 85.8066 120.927C85.6496 120.352 85.8851 119.793 86.317 119.675C86.7567 119.557 87.2356 119.927 87.3848 120.502Z" fill="black"/>
<path d="M83.875 120.935C84.4639 122.18 85.3276 123.267 86.0577 124.424C86.5131 125.141 87.3375 126.378 86.521 127.134C85.9792 127.63 84.4325 128.111 84.4325 128.111" stroke="black" stroke-miterlimit="10"/>
<path d="M85.977 129.796L81.6194 128.299C81.6194 128.299 80.4653 132.498 82.1533 133.167C84.8857 134.238 85.977 129.796 85.977 129.796Z" fill="white"/>
<path d="M64.2247 136.428C64.4995 136.625 66.8157 131.954 66.8628 131.426C66.9099 130.891 66.8 130.355 66.745 129.82C66.5723 128.103 67.7107 127.339 68.8884 126.338C69.7364 125.606 70.5922 124.716 71.0712 123.692C71.6993 122.345 71.4559 121.038 70.4195 120.022C69.5166 119.132 68.1426 118.36 67.9227 116.997C67.6008 114.965 69.7992 113.91 71.4716 113.886C73.9841 113.862 76.4023 114.933 78.8991 114.083C79.747 113.791 80.5008 113.295 81.0504 112.578C81.1996 112.389 82.1967 110.617 81.8041 110.444C83.6806 111.279 84.6071 113.146 85.6592 114.918C85.6278 111.232 83.3666 107.427 79.8805 105.821C75.625 103.859 70.8749 103.733 66.4074 105.293C61.8221 106.892 58.0299 110.357 56.1377 114.768C53.633 120.597 55.1091 129.237 59.5452 132.813C62.042 134.829 64.2404 136.428 64.2404 136.428H64.2247Z" fill="#1E1611"/>
<path d="M75.1875 137.972C75.3524 138.011 79.0347 139.807 84.1225 138.294" stroke="black" stroke-miterlimit="10"/>
<path d="M74.1094 120.486C74.2036 119.454 74.8396 118.486 75.7425 117.982C76.6454 117.478 77.7996 117.454 78.7261 117.911" stroke="black" stroke-miterlimit="10"/>
<path d="M83.2422 116.997C83.2815 116.139 83.784 115.406 84.4199 115.264C85.0638 115.13 85.7783 115.619 86.1237 116.383" stroke="black" stroke-miterlimit="10"/>
<path d="M82.8129 121.794C83.1191 123.889 81.6744 125.842 79.5781 126.149C77.4896 126.456 75.5424 125.007 75.2362 122.904C74.93 120.809 76.3747 118.856 78.471 118.549C80.5674 118.241 82.5067 119.691 82.8129 121.794Z" stroke="#FFC47A" stroke-miterlimit="10"/>
<path d="M89.7709 119.242C90.399 121.266 89.8651 123.235 88.5774 123.637C87.2898 124.039 85.7431 122.723 85.1149 120.699C84.4868 118.675 85.0207 116.706 86.3084 116.304C87.596 115.902 89.1427 117.218 89.7709 119.242Z" stroke="#FFC47A" stroke-miterlimit="10"/>
<path d="M84.9193 119.549L82.2969 120.352" stroke="#FFC47A" stroke-miterlimit="10"/>
<path d="M75.1984 122.503L68.2734 126.779" stroke="#FFC47A" stroke-miterlimit="10"/>
<path d="M71.1153 126.913C70.3694 125.141 67.4094 124.692 66.0511 125.889C62.7849 128.772 66.7734 135.105 70.5657 134.356C71.6413 134.144 72.9211 133.175 72.8269 131.899" fill="#A04B4B"/>
<path d="M66.9844 129.056L71.4283 130.725" stroke="black" stroke-miterlimit="10"/>
<path d="M68.5703 125.377C69.5595 125.543 70.4939 126.023 71.2241 126.74" stroke="black" stroke-miterlimit="10"/>
<path d="M66.1016 132.403C67.1694 133.671 68.7868 134.821 70.4748 134.451C71.6447 134.199 72.7204 133.214 72.7125 131.883" stroke="black" stroke-miterlimit="10"/>
<path d="M214.477 142.374L215.828 150.345C215.828 150.345 219.18 155.11 225.846 155.291C235.496 155.543 234.357 150.471 234.357 150.471L227.471 136.656" fill="#FFCAA3"/>
<path d="M233.766 123.912C233.295 122.81 232.659 121.786 231.992 120.793C230.335 118.297 223.897 114.815 220.953 116.769C214.711 120.904 207.291 128.394 207.15 135.648C207.126 137.011 207.315 138.476 208.147 139.555C215.747 149.479 238.995 136.239 233.766 123.92V123.912Z" fill="#FFCAA3"/>
<path d="M229.948 147.998C232.83 147.943 235.813 147.478 238.483 146.352C240.195 145.635 241.773 144.556 242.848 143.02C244.12 141.209 244.34 139.121 244.497 136.956C245.086 128.898 242.762 119.336 235.358 115.012C235.028 114.815 234.691 114.634 234.353 114.461C228.15 111.287 217.535 112.208 214.387 119.51C213.931 120.565 214.136 122.038 213.445 122.951C214.764 121.203 217.017 119.659 219.098 118.974C221.045 118.328 222.859 118.367 224.405 120.305C224.759 123.306 224.382 125.889 225.716 128.764C226.062 129.505 226.502 130.253 227.13 130.796C227.923 131.481 228.7 131.395 228.41 132.694C228.26 133.356 227.766 133.789 227.397 134.341C226.855 135.144 226.352 135.971 225.795 136.766C223.659 139.815 221.123 142.682 217.857 144.54C221.225 146.817 225.292 147.982 229.352 148.014C229.548 148.014 229.752 148.014 229.948 148.014V147.998Z" fill="#171F3F"/>
<path d="M225.036 131.135C226.607 129.93 229.488 131.048 230.093 132.82C231.545 137.081 224.738 140.705 221.723 138.082C220.867 137.341 220.215 135.813 220.954 134.719" fill="#FFCAA3"/>
<path d="M227.65 135.175L222.805 134.388" stroke="black" stroke-miterlimit="10"/>
<path d="M228.109 131.072C227.143 130.71 226.052 130.662 225.031 130.93" stroke="black" stroke-miterlimit="10"/>
<path d="M226.726 138.625C225.125 139.208 223.091 139.413 221.764 138.216C220.846 137.381 220.39 135.955 221.066 134.766" stroke="black" stroke-miterlimit="10"/>
<path d="M212.514 125.629C211.816 126.149 211.062 126.59 210.269 126.945C209.751 127.173 209.193 127.378 208.777 127.772C208.361 128.166 208.117 128.733 208.125 129.308C208.125 129.883 208.384 130.442 208.808 130.828" fill="#FFCAA3"/>
<path d="M212.514 125.629C211.816 126.149 211.062 126.59 210.269 126.945C209.751 127.173 209.193 127.378 208.777 127.772C208.361 128.166 208.117 128.733 208.125 129.308C208.125 129.883 208.384 130.442 208.808 130.828" stroke="black" stroke-miterlimit="10"/>
<path d="M214.555 143.32C214.555 143.32 216.526 143.146 217.703 142.768" stroke="black" stroke-miterlimit="10"/>
<path d="M217.523 123.519C218.528 123.416 219.493 124.031 220.027 124.834C220.561 125.645 220.734 126.614 220.836 127.567" stroke="black" stroke-miterlimit="10"/>
<path d="M217.787 128.189C217.395 128.764 216.735 129 216.319 128.717C215.895 128.433 215.872 127.732 216.264 127.149C216.657 126.574 217.316 126.338 217.732 126.622C218.156 126.905 218.18 127.606 217.787 128.189Z" fill="black"/>
<path d="M212.479 131.852L208.852 133.199C208.852 133.199 209.606 135.939 211.286 135.624C212.966 135.309 212.479 131.86 212.479 131.86V131.852Z" fill="white"/>
<path d="M240.772 182.386L247.093 191.381L230.047 211.174L244.046 221.003C249.88 217.333 264.311 206.511 269.03 201.636C270.836 199.769 272.602 197.729 273.269 195.279C273.827 193.232 273.568 191.042 272.955 189.002C270.529 180.874 258.163 167.964 258.163 167.964" fill="#FFCAA3"/>
<path d="M250.242 192.097C253.618 189.766 257.921 188.837 261.957 189.577" stroke="black" stroke-linejoin="round"/>
<path d="M234.665 150.18C238.473 150.408 240.601 151.125 244.04 152.779C251.695 156.449 268.787 179.267 268.787 179.267L242.242 192.042L233 176.983" fill="white"/>
<path d="M264.981 174.344L238.969 185.56" stroke="black" stroke-linejoin="round"/>
<path d="M205.807 143.107C205.807 143.107 202.093 166.586 206.136 180.267C210.18 193.948 218.463 213.773 218.463 213.773L258.184 209.772C258.184 209.772 247.262 178.275 247.686 174.793C248.11 171.312 245.119 157.418 245.119 157.418L234.355 150.479C234.355 150.479 233.373 153.204 224.964 152.771C217.898 152.409 215.001 148.4 215.001 148.4L205.814 143.115L205.807 143.107Z" fill="white"/>
<path d="M247.555 167.004C247.626 170.745 248.387 178.015 249.534 182.874" stroke="black" stroke-linejoin="round"/>
<path d="M217.211 154.063C220.1 155.354 223.335 155.709 226.499 155.63C229.915 155.543 233.558 154.866 235.992 152.456" stroke="black" stroke-linejoin="round"/>
<path d="M218.894 149.195C217.253 147.927 213.578 146.572 213.578 146.572C217.488 154.953 220.865 163.585 223.683 172.407L231.37 172.107C231.37 172.107 220.527 150.463 218.886 149.195H218.894Z" fill="#2C221D"/>
<path d="M239.1 151.511C237.828 150.589 234.891 150.7 234.891 150.7C238.267 157.938 239.5 164.081 242.28 171.777L247.407 171.871C247.407 171.871 240.372 152.432 239.1 151.511Z" fill="#2C221D"/>
<path d="M248.638 238.969L235.236 283.754L246.432 341.652L207.065 347.339C207.065 347.339 201.003 303.909 200.14 286.124C199.354 270.159 201.702 265.158 203.861 256.391C206.02 247.633 213.526 224.012 212.152 218.617C210.778 213.221 206.79 196.595 205.526 189.577C204.057 181.433 202.55 172.288 202.55 172.288L204.937 174.179C204.937 174.179 207.512 186.93 213.299 185.977C219.085 185.024 222.83 169.744 222.83 169.744L246.722 170.091C249.494 177.25 252.187 184.442 254.778 191.672C257.652 199.674 260.643 208.118 262.551 216.333" fill="#2C221D"/>
<path d="M222.82 169.744L224.594 175.226L232.626 175.203L230.373 170.115" stroke="#6D574E" stroke-miterlimit="10"/>
<path d="M241.656 170.02L243.36 175.069L248.346 175.305" stroke="#6D574E" stroke-miterlimit="10"/>
<path d="M226.266 171.753L228.952 171.887" stroke="#6D574E" stroke-miterlimit="10"/>
<path d="M244.328 172.099L246.613 172.21" stroke="#6D574E" stroke-miterlimit="10"/>
<path d="M213.977 186.103C215.265 194.641 217.392 203.045 220.321 211.166C223.36 219.601 221.444 226.509 219.308 235.055C216.599 245.869 210.46 258.605 208.63 269.001C207.539 275.216 208.261 286.928 211.221 306.044C214.401 326.577 217.903 345.772 217.903 345.772" stroke="#6D574E" stroke-miterlimit="10"/>
<path d="M210.88 176.794C210.88 176.794 189.688 160.427 179.215 150.881C165.749 138.609 154.922 118.903 154.922 118.903L167.579 108.892C167.579 108.892 185.943 129.733 188.935 132.182C195.012 137.16 210.032 146.856 210.032 146.856" fill="#FFCAA3"/>
<path d="M212.177 183.567C205.111 179.929 192.43 169.043 192.43 169.043L197.22 137.916C205.621 142.548 209.295 144.981 212.836 147.084" fill="white"/>
<path d="M157.988 122.613C156.371 121.613 154.745 120.589 153.316 119.328C148.975 115.493 149.359 110.097 147.742 104.938C146.541 101.095 144.177 98.1253 143.667 94.069C143.612 93.6279 143.408 92.5331 143.549 92.1078C143.651 91.777 144.248 91.4856 144.539 91.7849C144.876 92.1314 144.994 92.2575 145.41 93.0372C145.269 91.5171 144.774 90.4617 144.9 88.8943C144.978 87.8704 146.164 87.0512 146.949 88.3351C146.737 87.7365 147.004 86.1376 147.663 86.1455C148.048 86.1455 148.362 86.6259 148.77 87.1221C149.179 87.6183 150.678 89.0597 150.678 89.0597C150.678 89.0597 150.733 87.7759 150.851 87.6341C151.244 87.1615 151.77 87.5868 152.115 87.9649C154.274 90.3435 156.01 92.9584 157.925 95.5025C157.776 95.0693 158.373 94.6834 158.805 94.8251C159.236 94.9669 159.503 95.408 159.723 95.8097C163.052 101.796 168.509 110.034 170.715 112.413" fill="#FFCAA3"/>
<path d="M145.336 93.1006L147.48 96.4322C148.846 98.5588 149.992 100.859 151.005 103.182" stroke="black" stroke-width="0.75" stroke-miterlimit="10"/>
<path d="M146.938 88.335C148.069 90.115 148.594 90.7373 149.928 92.3755C150.517 93.1002 151.123 93.8012 151.657 94.5652C152.96 96.424 153.808 98.5427 154.64 100.646" stroke="black" stroke-width="0.75" stroke-miterlimit="10"/>
<path d="M150.227 88.4531C151.507 90.2411 152.786 92.0369 154.066 93.8248C155.464 95.7781 156.869 97.755 157.827 99.9525" stroke="black" stroke-width="0.75" stroke-miterlimit="10"/>
<path d="M157.812 95.4629C159.109 97.3374 160.278 99.2907 161.322 101.315" stroke="black" stroke-width="0.75" stroke-miterlimit="10"/>
<path d="M153.117 118.934C154.538 120.549 158.142 122.904 158.142 122.904" stroke="black" stroke-width="0.75" stroke-miterlimit="10"/>
<path d="M145.375 81.9785C150.015 83.0182 154.208 85.9324 156.799 89.9257" stroke="black" stroke-miterlimit="10"/>
<path d="M154.57 83.3418C157.75 85.3817 160.451 88.1778 162.382 91.4307" stroke="black" stroke-miterlimit="10"/>
<path d="M206.141 180.267L210.883 182.859" stroke="black" stroke-linejoin="round"/>
<path d="M202.633 141.027L197.656 173.36" stroke="black" stroke-linejoin="round"/>
<path d="M19.4622 153.57C18.9278 152.39 18.37 151.18 17.5075 150.372C14.8826 147.904 13.4342 152.707 11.1092 150.653C10.4202 150.042 9.95141 149.126 9.47329 148.246C8.65768 146.749 7.7577 145.275 6.54834 144.299C4.60306 142.73 1.95466 142.724 0 144.275" stroke="#FFDD99" stroke-width="1.5" stroke-miterlimit="10"/>
<path d="M268.188 111.942C269.462 109.522 271.816 108.097 274.089 108.36C276.02 108.588 277.895 109.924 279.808 109.486C281.851 109.013 283.258 106.69 284.94 105.139C288.184 102.162 292.942 102.222 296.139 105.276" stroke="#ED725A" stroke-width="1.5" stroke-miterlimit="10"/>
<path d="M23.6059 18.5669C24.073 14.8908 22.1191 11.427 19.2418 10.8303C16.3644 10.2336 13.6533 12.7299 13.1862 16.406C12.7192 20.0821 14.6731 23.5459 17.5504 24.1427C20.4277 24.7394 23.1389 22.243 23.6059 18.5669Z" stroke="#909DF4" stroke-width="1.5" stroke-miterlimit="10"/>
<path d="M289.936 132.365C292.299 132.365 294.215 129.917 294.215 126.897C294.215 123.878 292.299 121.43 289.936 121.43C287.572 121.43 285.656 123.878 285.656 126.897C285.656 129.917 287.572 132.365 289.936 132.365Z" stroke="#8F96DB" stroke-width="1.5" stroke-miterlimit="10"/>
<path d="M51.7031 -8.14002C56.0249 -9.21799 60.7499 -5.64272 62.0905 -0.282816C62.4233 1.0407 62.5686 2.44206 62.9858 3.72964C63.6233 5.67597 64.9029 7.257 66.4451 8.01158C68.2263 8.87995 70.4997 8.44876 72.1497 9.91001C74.2965 11.8024 74.259 15.2699 73.9169 18.2104" stroke="#ED725A" stroke-width="1.5" stroke-miterlimit="10"/>
<path d="M34.942 165.859L20.1719 172.375L28.5155 182.388L34.942 165.859Z" stroke="#ED725A" stroke-width="1.5" stroke-linejoin="round"/>
<path d="M183.075 3.15625L176.016 14.6007L188.854 13.1035L183.075 3.15625Z" fill="#FFDD99"/>
<path d="M21.4468 131.95C23.1347 131.95 24.503 130.202 24.503 128.045C24.503 125.889 23.1347 124.141 21.4468 124.141C19.7589 124.141 18.3906 125.889 18.3906 128.045C18.3906 130.202 19.7589 131.95 21.4468 131.95Z" fill="#909DF4"/>
<path d="M293.648 179.293L299.071 200.002L312.004 191.839L293.648 179.293Z" fill="#909DF4"/>
<path d="M276.172 98.1195C276.172 99.425 275.342 100.485 274.32 100.485C273.299 100.485 272.469 99.425 272.469 98.1195C272.469 96.8139 273.299 95.7539 274.32 95.7539C275.342 95.7539 276.172 96.8139 276.172 98.1195Z" stroke="#FFDD99" stroke-width="1.5" stroke-miterlimit="10"/>
<path d="M166.375 5.52406C167.397 5.52406 168.226 4.46497 168.226 3.15852C168.226 1.85206 167.397 0.792969 166.375 0.792969C165.352 0.792969 164.523 1.85206 164.523 3.15852C164.523 4.46497 165.352 5.52406 166.375 5.52406Z" fill="#909DF4"/>
<path d="M285.649 77.1481C285.419 75.5371 285.831 73.8004 286.722 72.6266C288.316 70.5246 291.123 70.9558 293.219 70.6743C294.086 70.5605 295.042 70.3808 295.595 69.5245C296.191 68.5962 296.087 67.2487 296.359 66.1049C296.734 64.5358 297.841 63.392 299.041 62.8171C300.24 62.2422 301.548 62.1463 302.828 62.0625" stroke="#ED725A" stroke-width="1.5" stroke-miterlimit="10"/>
<path d="M194.18 17.1633C194.911 15.5643 195.966 13.588 198.277 13.624C200.086 13.6539 202.069 14.5043 203.4 12.3843C204.178 11.1386 204.309 9.43186 204.905 8.03049C205.505 6.62314 206.695 5.56314 207.961 5.43737C209.423 5.29364 210.731 6.62314 212.208 6.29975C213.661 5.98235 214.65 4.31149 215.329 2.7664C216.45 0.209214 218.193 -1.45565 220.27 -2.6534C222.82 -4.12663 225.717 -4.65963 228.473 -3.99488" stroke="#8F96DB" stroke-width="1.5" stroke-miterlimit="10"/>
</g>
</g>
<defs>
<clipPath id="clip0_70_2">
<rect width="312" height="200" fill="white"/>
</clipPath>
</defs>
</svg>
