<svg width="48" height="48" viewBox="0 0 48 48" fill="none" xmlns="http://www.w3.org/2000/svg">
<path d="M0.00256348 8C0.00256348 3.58172 3.58429 0 8.00256 0H39.9974C44.4157 0 47.9974 3.58172 47.9974 8V40C47.9974 44.4183 44.4157 48 39.9974 48H8.00256C3.58429 48 0.00256348 44.4183 0.00256348 40V8Z" fill="#F1F5FA"/>
<g clip-path="url(#clip0_485_23056)">
<path d="M23.2077 23.2051H8.00256V8H23.2077V23.2051Z" fill="#F1511B"/>
<path d="M39.9974 23.2051H24.791V8H39.9961V23.2051H39.9974Z" fill="#80CC28"/>
<path d="M23.2077 40H8.00256V24.7949H23.2077V40Z" fill="#00ADEF"/>
<path d="M39.9974 40H24.791V24.7949H39.9961V40H39.9974Z" fill="#FBBC09"/>
</g>
<defs>
<clipPath id="clip0_485_23056">
<rect width="31.9949" height="32" fill="white" transform="translate(8.00256 8)"/>
</clipPath>
</defs>
</svg>
