<svg width="20" height="20" viewBox="0 0 20 20" fill="none" xmlns="http://www.w3.org/2000/svg">
<path d="M16.475 9.37533H13.1084C11.4334 9.37533 10.625 8.63366 10.625 7.10033V3.31699C10.625 1.78366 11.4417 1.04199 13.1084 1.04199H16.475C18.15 1.04199 18.9584 1.78366 18.9584 3.31699V7.09199C18.9584 8.63366 18.1417 9.37533 16.475 9.37533ZM13.1084 2.29199C11.9917 2.29199 11.875 2.60866 11.875 3.31699V7.09199C11.875 7.80866 11.9917 8.11699 13.1084 8.11699H16.475C17.5917 8.11699 17.7084 7.80033 17.7084 7.09199V3.31699C17.7084 2.60033 17.5917 2.29199 16.475 2.29199H13.1084Z" fill="#4B5565"/>
<path d="M16.475 18.9587H13.1084C11.4334 18.9587 10.625 18.142 10.625 16.4753V13.1087C10.625 11.4337 11.4417 10.6253 13.1084 10.6253H16.475C18.15 10.6253 18.9584 11.442 18.9584 13.1087V16.4753C18.9584 18.142 18.1417 18.9587 16.475 18.9587ZM13.1084 11.8753C12.125 11.8753 11.875 12.1253 11.875 13.1087V16.4753C11.875 17.4587 12.125 17.7087 13.1084 17.7087H16.475C17.4584 17.7087 17.7084 17.4587 17.7084 16.4753V13.1087C17.7084 12.1253 17.4584 11.8753 16.475 11.8753H13.1084Z" fill="#4B5565"/>
<path d="M6.89169 9.37533H3.52502C1.85002 9.37533 1.04169 8.63366 1.04169 7.10033V3.31699C1.04169 1.78366 1.85835 1.04199 3.52502 1.04199H6.89169C8.56669 1.04199 9.37502 1.78366 9.37502 3.31699V7.09199C9.37502 8.63366 8.55835 9.37533 6.89169 9.37533ZM3.52502 2.29199C2.40835 2.29199 2.29169 2.60866 2.29169 3.31699V7.09199C2.29169 7.80866 2.40835 8.11699 3.52502 8.11699H6.89169C8.00835 8.11699 8.12502 7.80033 8.12502 7.09199V3.31699C8.12502 2.60033 8.00835 2.29199 6.89169 2.29199H3.52502Z" fill="#4B5565"/>
<path d="M6.89169 18.9587H3.52502C1.85002 18.9587 1.04169 18.142 1.04169 16.4753V13.1087C1.04169 11.4337 1.85835 10.6253 3.52502 10.6253H6.89169C8.56669 10.6253 9.37502 11.442 9.37502 13.1087V16.4753C9.37502 18.142 8.55835 18.9587 6.89169 18.9587ZM3.52502 11.8753C2.54169 11.8753 2.29169 12.1253 2.29169 13.1087V16.4753C2.29169 17.4587 2.54169 17.7087 3.52502 17.7087H6.89169C7.87502 17.7087 8.12502 17.4587 8.12502 16.4753V13.1087C8.12502 12.1253 7.87502 11.8753 6.89169 11.8753H3.52502Z" fill="#4B5565"/>
</svg>
