<svg width="183" height="201" viewBox="0 0 183 201" fill="none" xmlns="http://www.w3.org/2000/svg">
<path d="M8.04103 129.006C8.51127 127.579 8.39574 126.032 7.74813 124.675C-4.18114 99.7483 -0.567711 68.0275 16.8766 46.545C19.9785 42.7253 23.5714 39.1409 28.0469 37.0949C32.5224 35.049 38.0251 34.756 42.2242 37.3217C44.0887 38.4602 45.6025 40.0854 47.401 41.327C53.6007 45.6128 63.5831 49.5892 70.2283 46.0294C76.8736 42.4695 78.8659 40.0236 84.2283 34.7313C92.6308 26.4361 92.936 25.31 102.927 20.4055C113.523 15.204 122.132 15.9422 133.204 20.0424C144.275 24.1425 160.717 35.3994 161.612 47.172C162.829 63.1932 158.328 62.3682 164.623 77.152C167.902 84.8491 175.731 89.7412 179.588 97.1661C186.403 110.287 178.833 126.197 169.965 138.028C160.853 150.188 165.233 160.459 154.269 170.977C142.757 182.024 129.52 182.515 123.403 186.413C115.442 191.478 108.103 197.88 98.8512 199.753C87.5736 202.034 72.4475 199.072 64.0574 191.202C58.6002 186.083 53.345 179.434 46.1676 177.317C41.589 175.969 39.048 175.952 34.2714 175.94C26.3268 175.915 19.2649 170.973 13.4364 165.574C8.43288 160.941 3.74699 155.567 1.90728 149.004C0.203685 142.932 1.5525 135.664 6.25904 131.63C7.07577 130.928 7.69453 130.034 8.03277 129.011L8.04103 129.006Z" fill="#F8F5FF"/>
<path d="M168.992 135.414C167.445 135.113 165.807 134.305 165.316 132.808C164.772 131.137 165.849 129.425 166.282 127.722C166.525 126.765 166.562 125.758 166.393 124.785C166.199 123.687 165.795 122.396 166.55 121.575C167.408 120.635 169.058 121.221 169.833 122.231C170.609 123.242 170.939 124.545 171.747 125.531C172.205 126.084 172.803 126.517 173.216 127.103C173.966 128.167 173.995 129.623 173.546 130.844C173.096 132.065 172.226 133.088 171.273 133.979L168.988 135.414H168.992Z" fill="#EAE1FF"/>
<path d="M114.246 184.507C115.108 182.329 116.733 180.16 119.056 179.855C121.642 179.512 123.853 181.554 126.221 182.651C127.553 183.27 129.013 183.6 130.482 183.617C132.14 183.637 134.132 183.398 135.131 184.722C136.269 186.236 134.961 188.48 133.274 189.342C131.587 190.204 129.591 190.319 127.933 191.235C127 191.751 126.204 192.506 125.235 192.947C123.474 193.752 121.341 193.397 119.679 192.407C118.016 191.417 116.762 189.862 115.719 188.232L114.246 184.503V184.507Z" fill="#EAE1FF"/>
<path d="M141.354 182.346C139.407 181.451 137.163 180.123 137.147 177.982C137.134 176.493 138.256 175.264 139.304 174.204C142.241 171.238 145.174 168.268 148.111 165.302C149.002 164.403 149.913 163.487 151.039 162.91C153.114 161.846 155.663 162.052 157.73 160.979C161.154 159.202 162.111 154.635 165.13 152.235C166.863 150.857 169.23 150.32 171.388 150.811C172.147 150.985 172.918 151.306 173.38 151.933C174.217 153.064 173.764 154.664 173.165 155.935C171.363 159.771 168.558 163.137 167.263 167.171C166.26 170.285 166.108 173.874 163.888 176.274C162.531 177.743 160.605 178.518 158.745 179.249C153.902 181.15 148.845 183.089 143.656 182.66L141.358 182.346H141.354Z" fill="#EAE1FF"/>
<path d="M56.0997 177.727C56.3967 179.316 55.8852 180.953 54.7178 182.067C52.9358 183.766 50.8693 185.123 48.5057 184.88C47.326 184.76 46.2246 184.237 45.0573 184.043C42.9288 183.692 40.7921 184.463 38.643 184.624C34.4315 184.934 30.1333 182.669 28.0089 179.018C25.3277 174.407 26.0249 168.178 21.471 164.602C20.3779 163.744 19.6148 162.494 19.425 161.116C18.8805 157.194 23.0797 156.34 26.0909 157.029C28.5947 157.598 30.9665 158.753 32.963 160.37C36.0525 162.874 38.3625 166.537 42.0914 167.922C44.1663 168.694 46.4556 168.661 48.5758 169.288C52.214 170.364 55.1633 173.508 56.0048 177.208L56.0997 177.727Z" fill="#EAE1FF"/>
<path d="M17.3659 122.223C18.6487 122.132 19.8821 122.858 20.7153 123.835C21.5486 124.813 22.0435 126.03 22.5055 127.23C22.9634 128.422 23.4048 129.647 23.4254 130.926C23.4584 132.803 22.5921 134.556 22.0889 136.363C21.631 138.005 21.4702 139.725 21.6104 141.42C21.7548 143.132 22.0147 145.273 20.5503 146.168C19.713 146.679 18.5869 146.502 17.766 145.957C16.9451 145.417 16.3759 144.571 15.8809 143.726C14.5857 141.511 13.6493 139.106 12.7212 136.714C11.789 134.321 12.8697 133.809 11.9375 131.417C11.558 130.439 11.1702 129.396 11.3641 128.365C11.756 126.281 12.1644 123.493 14.2145 122.957L17.37 122.218L17.3659 122.223Z" fill="#EAE1FF"/>
<path d="M59.5732 72.2897C59.5732 72.2897 41.2874 79.0464 37.1089 86.0629C32.9303 93.0794 24.7795 110.635 21.6445 131.738C21.6445 131.738 41.2874 127.139 51.7358 127.976L54.8707 157.857C54.8707 157.857 62.1842 171.024 82.6645 169.143C103.145 167.262 112.756 161.619 112.756 161.619L123.476 125.415L125.085 128.393C125.085 128.393 134.069 119.198 153.923 117.107C153.923 117.107 139.923 89.3134 130.518 80.5355C122.808 73.3376 119.232 69.2498 98.1288 66.0117L82.4541 72.1743L59.5732 72.2774V72.2897Z" fill="#764FDA"/>
<path d="M86.7725 20.2188C86.7725 20.2188 90.5344 32.4779 90.3942 41.396C90.2539 50.3141 90.8108 55.8827 87.8863 59.2281C87.8863 59.2281 88.2328 64.8009 89.1402 65.531C90.0477 66.2612 98.1243 66.0177 98.1243 66.0177C98.1243 66.0177 101.049 83.7797 82.7631 85.871C64.4773 87.9624 59.5687 72.2876 59.5687 72.2876L64.6877 69.5734C65.7189 69.0248 66.2181 67.8245 65.8757 66.7067L62.0767 54.3154C62.0767 54.3154 59.1521 56.7202 56.6441 54.3154C54.1362 51.9106 52.6718 46.8987 57.168 45.4343L49.541 32.8946L64.168 20.2188H86.7725Z" fill="#FBA8B8"/>
<path d="M68.6289 58.0781C68.6289 58.0781 77.2335 66.5425 87.8923 59.229L88.2594 62.6693C88.2594 62.6693 75.5918 68.3204 68.6289 58.0824V58.0781Z" fill="#402E6B"/>
<path d="M50.2216 127.876C50.2216 127.876 50.3289 107.861 49.541 102.148C49.541 102.148 53.1998 125.17 53.4102 127.876H50.2216Z" fill="#402E6B"/>
<path d="M120.905 94.8203C120.905 94.8203 119.651 112.166 117.98 122.404H120.905C120.905 122.404 121.742 107.356 120.905 94.8203Z" fill="#402E6B"/>
<path d="M77.7626 57.0252C78.6536 56.4024 79.8829 56.6456 80.4686 57.5614L103.358 93.3575L106.055 99.6356C106.134 99.8212 105.915 99.9903 105.759 99.8666L100.433 95.7954L77.2511 59.6198C76.6984 58.7577 76.9253 57.611 77.7626 57.0252Z" fill="#B19BEA"/>
<path d="M23.3776 131.349C23.3776 131.349 20.321 153.818 25.1967 161.618C30.0723 169.418 36.8991 171.926 46.0935 170.813C55.288 169.699 65.1795 151.867 69.2178 142.672C73.2561 133.478 83.2879 109.236 83.2879 109.236C83.2879 109.236 87.8872 109.236 89.0009 105.334C90.1146 101.431 90.622 94.5718 90.622 94.5718C90.622 94.5718 93.1465 93.8911 93.8106 94.2747C94.4747 94.6583 94.85 99.5216 96.0916 99.9052C97.7375 100.413 101.462 96.1062 103.409 91.9689C104.04 90.6283 103.797 89.0401 102.832 87.9181C101.103 85.9052 98.3232 82.7249 97.5725 82.2093C96.4588 81.4421 84.6161 81.0255 81.7617 83.3231C78.9073 85.6207 79.2909 92.0844 76.0487 97.1168C74.2585 99.9011 50.2226 127.876 50.2226 127.876C50.2226 127.876 37.8602 127.41 23.3776 131.349Z" fill="#FBA8B8"/>
<path d="M88.1603 125.082C91.6088 124.731 117.823 122.066 122.467 121.794C122.81 121.773 123.074 122.083 123.008 122.417L112.753 168.096C112.708 168.327 112.514 168.5 112.279 168.517L77.9058 172.035C77.5552 172.06 77.2788 171.743 77.3571 171.4L87.7025 125.486C87.752 125.267 87.9335 125.102 88.1603 125.082Z" fill="#B19BEA"/>
<path d="M84.9376 125.316C88.3861 124.965 114.6 122.301 119.245 122.028C119.587 122.008 119.851 122.317 119.785 122.651L109.53 168.331C109.485 168.562 109.291 168.735 109.056 168.751L74.6831 172.27C74.3325 172.295 74.0561 171.977 74.1345 171.635L84.4798 125.72C84.5293 125.502 84.7108 125.337 84.9376 125.316Z" fill="#EAE1FF"/>
<path d="M32.0238 148.21C31.9619 148.21 31.9 148.193 31.8423 148.164C31.6567 148.065 31.5865 147.83 31.6855 147.645C37.3738 137.105 49.1917 128.167 49.3072 128.08C49.4763 127.952 49.7197 127.99 49.8434 128.159C49.9713 128.328 49.9342 128.567 49.765 128.695C49.6495 128.781 37.9637 137.621 32.3579 148.012C32.2878 148.14 32.1558 148.214 32.0197 148.214L32.0238 148.21Z" fill="#402E6B"/>
<path d="M125.085 128.395C125.085 128.395 134.915 118.859 152.673 117.254C152.673 117.254 163.43 146.471 163.327 153.157C163.224 159.844 159.565 167.784 153.089 170.502C146.613 173.221 126.863 164.34 118.609 158.8C118.609 158.8 117.252 161.935 110.252 159.951C103.252 157.967 93.9544 156.606 92.2797 152.534C90.6091 148.459 92.9067 140.729 94.4742 140.102C96.0416 139.475 109.101 139.161 113.073 139.891C113.073 139.891 110.289 137.627 107.501 136.653C104.712 135.68 103.545 133.96 104.923 132.578C105.76 131.741 112.009 132.293 113.614 132.99C115.214 133.688 123.489 137.524 123.068 142.89L133.578 143.571L125.089 128.403L125.085 128.395Z" fill="#FBA8B8"/>
<path d="M147.109 145.844C147.055 145.844 147.002 145.831 146.952 145.811C143.034 144.054 134.033 144.033 133.942 144.033C133.732 144.033 133.559 143.86 133.559 143.649C133.559 143.439 133.732 143.266 133.942 143.266C134.318 143.266 143.194 143.286 147.262 145.11C147.455 145.196 147.542 145.423 147.455 145.617C147.389 145.761 147.253 145.844 147.105 145.844H147.109Z" fill="#402E6B"/>
<path d="M123.019 145.461C123.019 145.461 122.004 151.017 118.605 158.801L120.833 160.212C120.833 160.212 124.026 153.108 123.015 145.465L123.019 145.461Z" fill="#402E6B"/>
<path d="M50.0662 25.7919C50.0662 25.7919 47.1417 18.0618 53.2012 12.2085C56.7527 8.86318 64.2766 9.284 67.6219 10.1172C70.9672 10.9546 73.0544 2.07362 76.7132 0.819646C80.372 -0.43433 91.6537 1.65701 89.1457 13.3058C89.1457 13.3058 93.118 15.2403 91.3402 19.9427C90.2347 22.8714 86.6377 24.4307 83.1893 24.6411C83.1893 24.6411 81.5187 28.0894 75.352 26.9386C69.1852 25.7877 63.5465 25.895 61.2448 29.5497C60.2012 31.4306 56.959 31.641 56.5423 30.9068C56.5423 30.9068 53.4074 33.5178 55.8122 37.6964C58.217 41.8749 61.2447 44.0693 60.2011 49.6091C60.2011 49.6091 58.5305 45.9503 54.5582 47.625C54.5582 47.625 37.5265 36.133 50.0662 25.7877V25.7919Z" fill="#402E6B"/>
<path d="M75.2025 37.9583C75.2025 37.9583 72.0964 34.6459 66.6226 36.1927C61.1489 37.7437 59.4824 43.3165 59.4824 43.3165C59.4824 43.3165 64.4818 45.478 69.3369 43.7167C74.1878 41.9554 75.2025 37.9583 75.2025 37.9583Z" fill="white"/>
<path d="M71.6602 36.0523C71.6602 36.0523 73.5825 39.4101 69.9113 42.0789C66.2401 44.7477 61.5707 40.7464 62.6184 38.6922C62.6184 38.6922 65.6172 36.1967 67.4404 35.9699C69.2678 35.743 71.6602 36.0523 71.6602 36.0523Z" fill="#402E6B"/>
<path d="M75.4471 38.2785C75.4471 38.2785 75.476 38.2539 75.4884 38.2415C75.641 38.0806 75.641 37.829 75.4801 37.6723C75.3275 37.5238 71.7223 34.1001 66.496 35.8161C61.3192 37.5155 59.1949 42.948 59.1083 43.1749C59.0299 43.3811 59.133 43.6122 59.3393 43.6947C59.5455 43.7731 59.7765 43.6699 59.859 43.4637C59.8796 43.4101 61.9421 38.1591 66.7476 36.5792C71.5202 35.0159 74.8902 38.2167 74.9232 38.2497C75.0676 38.39 75.2944 38.3982 75.4471 38.2785Z" fill="#402E6B"/>
<path d="M74.8522 32.8037C74.712 32.7253 72.1834 31.3765 68.5246 31.7312C66.5941 31.8879 63.5169 32.618 60.6542 35.3776C60.5016 35.5219 60.4975 35.7652 60.6459 35.9137C60.7944 36.0622 61.0337 36.0665 61.1822 35.9262C62.3454 34.8042 63.554 34.0453 64.6966 33.5256C64.6966 33.5256 64.6967 33.5256 64.7008 33.5256C66.0084 32.9481 67.2582 32.6469 68.3967 32.5231C69.5682 32.4035 70.5623 32.4778 70.5623 32.4778C72.93 32.647 74.4603 33.4594 74.4851 33.4718C74.5511 33.5089 74.6212 33.5214 74.6913 33.5173C74.8151 33.5091 74.9347 33.439 75.0007 33.3193C75.0997 33.1337 75.0337 32.9027 74.8522 32.8037Z" fill="#402E6B"/>
<path d="M80.0919 31.7828C80.1785 31.7786 80.2651 31.7414 80.3353 31.6754C84.5592 27.5216 89.4183 28.1529 89.4637 28.1612C89.6741 28.19 89.8638 28.0456 89.8927 27.8393C89.9215 27.6331 89.7772 27.4392 89.5709 27.4103C89.3564 27.3814 84.2869 26.7215 79.799 31.1393C79.6505 31.2877 79.6464 31.5269 79.7949 31.6754C79.8774 31.7579 79.9846 31.795 80.0919 31.7868V31.7828Z" fill="#402E6B"/>
<path d="M94.734 33.5347C94.734 33.5347 92.0651 30.1894 86.8058 31.233C81.5466 32.2766 79.5625 37.3873 79.5625 37.3873C79.5625 37.3873 84.0999 39.7963 88.7899 38.5052C93.48 37.2182 94.734 33.5387 94.734 33.5387V33.5347Z" fill="white"/>
<path d="M91.3106 31.5524C91.3106 31.5524 92.8616 34.8524 89.211 37.0839C85.5604 39.3155 81.4727 35.2029 82.6153 33.3508C82.6153 33.3508 85.6182 31.2306 87.3507 31.1564C89.0831 31.0821 91.3106 31.5524 91.3106 31.5524Z" fill="#402E6B"/>
<path d="M94.941 33.8569C94.941 33.8569 94.9698 33.8363 94.9821 33.8239C95.1389 33.6878 95.1554 33.4485 95.0152 33.2918C94.8832 33.1433 91.7524 29.6535 86.7158 30.8704C81.7206 32.0749 79.3198 37.0207 79.2167 37.2269C79.126 37.4167 79.2085 37.6395 79.3941 37.7303C79.5838 37.821 79.8066 37.7426 79.8973 37.5528C79.9221 37.5033 82.2526 32.7267 86.889 31.6047C91.4883 30.4951 94.4129 33.7579 94.4418 33.7908C94.5696 33.9352 94.7801 33.96 94.9327 33.8569H94.941Z" fill="#402E6B"/>
<path d="M81.7725 48.1147C82.6264 48.0239 83.3606 47.7271 83.8639 47.2404C84.5362 46.5927 84.7507 45.6645 84.4661 44.6333C83.7607 42.0841 79.8132 38.215 79.6441 38.0542C79.4956 37.9057 79.2522 37.9098 79.1078 38.0624C78.9593 38.2109 78.9634 38.4542 79.1161 38.5986C79.1573 38.6357 83.0843 42.4883 83.736 44.8395C83.9464 45.6026 83.8102 46.242 83.34 46.6957C82.5521 47.4547 80.9888 47.6073 79.3553 47.0917C79.1573 47.0298 78.9428 47.1371 78.8768 47.3392C78.815 47.5414 78.9222 47.7518 79.1243 47.8178C80.0483 48.1107 80.9641 48.2097 81.7767 48.1189L81.7725 48.1147Z" fill="#402E6B"/>
<path d="M73.2714 50.0552C75.3846 49.8267 76.9465 48.2424 76.7599 46.5165C76.5733 44.7906 74.709 43.5767 72.5958 43.8051C70.4826 44.0336 68.9208 45.6179 69.1074 47.3438C69.2939 49.0697 71.1582 50.2836 73.2714 50.0552Z" fill="#F794AB"/>
<path d="M87.6249 44.4506C89.1595 43.9252 90.0553 42.4823 89.6258 41.2279C89.1963 39.9735 87.6042 39.3826 86.0696 39.908C84.535 40.4335 83.6391 41.8762 84.0686 43.1306C84.4981 44.385 86.0903 44.976 87.6249 44.4506Z" fill="#F794AB"/>
<path d="M75.2725 52.1551C76.3697 52.1056 79.6861 52.1302 83.2789 53.8173C83.3986 53.8751 83.5141 53.7308 83.4275 53.6318C82.3674 52.3944 78.9808 49.0571 75.1982 51.9363C75.1034 52.0106 75.1529 52.1632 75.2725 52.1591V52.1551Z" fill="#402E6B"/>
<path d="M125.49 45.2944C131.566 44.1724 139.601 46.012 144.056 50.3927C153.057 59.2407 149.546 75.196 138.875 81.0658C127.227 87.4759 110.768 80.4633 108.85 66.9707C107.299 56.0809 115.066 47.2123 125.49 45.2901V45.2944Z" fill="#B19BEA"/>
<path d="M131.502 49.5833L134.052 50.6971C134.695 50.9776 135.013 51.7035 134.79 52.3677L129.221 68.756C128.986 69.4489 128.244 69.8286 127.542 69.6099L126.441 69.2675C125.76 69.0572 125.365 68.3559 125.53 67.6629L129.65 50.5032C129.848 49.6864 130.731 49.2451 131.502 49.5833Z" fill="#EAE1FF"/>
<path d="M125.49 77.1409C127.119 77.1409 128.44 75.8203 128.44 74.1915C128.44 72.5626 127.119 71.2422 125.49 71.2422C123.861 71.2422 122.541 72.5626 122.541 74.1915C122.541 75.8203 123.861 77.1409 125.49 77.1409Z" fill="#EAE1FF"/>
</svg>
