<svg width="20" height="20" viewBox="0 0 20 20" fill="none" xmlns="http://www.w3.org/2000/svg">
<path d="M7.89175 12.7341C7.73342 12.7341 7.57508 12.6758 7.45008 12.5508C6.76675 11.8675 6.39175 10.9591 6.39175 10.0008C6.39175 8.00915 8.00841 6.39248 10.0001 6.39248C10.9584 6.39248 11.8667 6.76748 12.5501 7.45081C12.6667 7.56748 12.7334 7.72581 12.7334 7.89248C12.7334 8.05915 12.6667 8.21748 12.5501 8.33415L8.33342 12.5508C8.20842 12.6758 8.05008 12.7341 7.89175 12.7341ZM10.0001 7.64248C8.70008 7.64248 7.64175 8.70081 7.64175 10.0008C7.64175 10.4175 7.75008 10.8175 7.95008 11.1675L11.1667 7.95081C10.8167 7.75081 10.4167 7.64248 10.0001 7.64248Z" fill="#697586"/>
<path d="M4.66662 15.4262C4.52495 15.4262 4.37495 15.3762 4.25828 15.2762C3.36662 14.5179 2.56662 13.5845 1.88328 12.5012C0.999951 11.1262 0.999951 8.88454 1.88328 7.5012C3.91662 4.31787 6.87495 2.48454 9.99995 2.48454C11.8333 2.48454 13.6416 3.11787 15.225 4.30954C15.5 4.51787 15.5583 4.90954 15.35 5.18454C15.1416 5.45954 14.75 5.51787 14.475 5.30954C13.1083 4.2762 11.5583 3.73454 9.99995 3.73454C7.30828 3.73454 4.73328 5.3512 2.93328 8.1762C2.30828 9.1512 2.30828 10.8512 2.93328 11.8262C3.55828 12.8012 4.27495 13.6429 5.06662 14.3262C5.32495 14.5512 5.35828 14.9429 5.13328 15.2095C5.01662 15.3512 4.84162 15.4262 4.66662 15.4262Z" fill="#697586"/>
<path d="M9.99973 17.5179C8.89139 17.5179 7.80806 17.2929 6.76639 16.8512C6.44973 16.7179 6.29973 16.3512 6.43306 16.0346C6.56639 15.7179 6.93306 15.5679 7.24973 15.7012C8.13306 16.0762 9.05806 16.2679 9.99139 16.2679C12.6831 16.2679 15.2581 14.6512 17.0581 11.8262C17.6831 10.8512 17.6831 9.15122 17.0581 8.17622C16.7997 7.76789 16.5164 7.37622 16.2164 7.00955C15.9997 6.74289 16.0414 6.35122 16.3081 6.12622C16.5747 5.90955 16.9664 5.94289 17.1914 6.21789C17.5164 6.61789 17.8331 7.05122 18.1164 7.50122C18.9997 8.87622 18.9997 11.1179 18.1164 12.5012C16.0831 15.6846 13.1247 17.5179 9.99973 17.5179Z" fill="#697586"/>
<path d="M10.5747 13.5594C10.2831 13.5594 10.0164 13.3511 9.95807 13.0511C9.89141 12.7094 10.1164 12.3844 10.4581 12.3261C11.3747 12.1594 12.1414 11.3928 12.3081 10.4761C12.3747 10.1344 12.6997 9.91777 13.0414 9.9761C13.3831 10.0428 13.6081 10.3678 13.5414 10.7094C13.2747 12.1511 12.1247 13.2928 10.6914 13.5594C10.6497 13.5511 10.6164 13.5594 10.5747 13.5594Z" fill="#697586"/>
<path d="M1.66711 18.9589C1.50877 18.9589 1.35044 18.9006 1.22544 18.7756C0.983773 18.5339 0.983773 18.1339 1.22544 17.8923L7.45044 11.6673C7.69211 11.4256 8.09211 11.4256 8.33377 11.6673C8.57544 11.9089 8.57508 12.3091 8.33342 12.5508L2.10877 18.7756C1.98377 18.9006 1.82544 18.9589 1.66711 18.9589Z" fill="#697586"/>
<path d="M12.1082 8.51784C11.9499 8.51784 11.7915 8.45951 11.6665 8.33451C11.4249 8.09284 11.4249 7.69284 11.6665 7.45117L17.8915 1.22617C18.1332 0.984505 18.5332 0.984505 18.7749 1.22617C19.0165 1.46784 19.0165 1.86784 18.7749 2.10951L12.5501 8.33415C12.4251 8.45915 12.2665 8.51784 12.1082 8.51784Z" fill="#697586"/>
</svg>
