<svg width="40" height="40" viewBox="0 0 40 40" fill="none" xmlns="http://www.w3.org/2000/svg">
<rect width="40" height="40" rx="20" fill="#764FDB"/>
<path d="M24.3248 14.1333C24.3248 14.1417 24.3248 14.1417 24.3248 14.15C24.1165 14.1417 23.9082 14.1333 23.6832 14.1333H17.2665L18.1582 13.25C18.9748 12.425 19.8748 11.6667 20.9165 11.6667C21.9665 11.6667 22.8665 12.425 23.6832 13.25L24.1498 13.7167C24.2665 13.825 24.3248 13.975 24.3248 14.1333Z" fill="white"/>
<path d="M27.3667 20.975C27.6917 20.975 27.95 20.7083 27.95 20.375V19.6417C27.95 16.3667 26.95 15.375 23.6834 15.375H16.3167C13.05 15.375 12.05 16.375 12.05 19.6417V20C12.05 20.3333 12.3084 20.5917 12.6334 20.5917C13.3334 20.5917 13.8917 21.1583 13.8917 21.85C13.8917 22.5417 13.3334 23.1167 12.6334 23.1167C12.3084 23.1167 12.05 23.375 12.05 23.7083V24.0667C12.05 27.3417 13.05 28.3333 16.3167 28.3333H23.675C26.9417 28.3333 27.9417 27.3333 27.9417 24.0667C27.9417 23.7417 27.6834 23.475 27.3584 23.475C26.6584 23.475 26.1 22.9167 26.1 22.225C26.1084 21.5333 26.6667 20.975 27.3667 20.975ZM19.0167 25.7167C19.0167 26.0417 18.75 26.3083 18.425 26.3083C18.1 26.3083 17.8334 26.0417 17.8334 25.7167V23.4833C17.8334 23.1583 18.1 22.8917 18.425 22.8917C18.75 22.8917 19.0167 23.1583 19.0167 23.4833V25.7167ZM19.0167 20.225C19.0167 20.55 18.75 20.8167 18.425 20.8167C18.1 20.8167 17.8334 20.55 17.8334 20.225V17.9917C17.8334 17.6667 18.1 17.4 18.425 17.4C18.75 17.4 19.0167 17.6667 19.0167 17.9917V20.225Z" fill="white"/>
</svg>
