<svg width="40" height="40" viewBox="0 0 40 40" fill="none" xmlns="http://www.w3.org/2000/svg">
<rect width="40" height="40" rx="20" fill="#764FDB"/>
<path d="M24.1665 11.6667H15.8332C13.5332 11.6667 11.6665 13.525 11.6665 15.8167V20.8V21.6333C11.6665 23.925 13.5332 25.7833 15.8332 25.7833H17.0832C17.3082 25.7833 17.6082 25.9333 17.7498 26.1167L18.9998 27.775C19.5498 28.5083 20.4498 28.5083 20.9998 27.775L22.2498 26.1167C22.4082 25.9083 22.6582 25.7833 22.9165 25.7833H24.1665C26.4665 25.7833 28.3332 23.925 28.3332 21.6333V15.8167C28.3332 13.525 26.4665 11.6667 24.1665 11.6667ZM16.6665 20C16.1998 20 15.8332 19.625 15.8332 19.1667C15.8332 18.7083 16.2082 18.3333 16.6665 18.3333C17.1248 18.3333 17.4998 18.7083 17.4998 19.1667C17.4998 19.625 17.1332 20 16.6665 20ZM19.9998 20C19.5332 20 19.1665 19.625 19.1665 19.1667C19.1665 18.7083 19.5415 18.3333 19.9998 18.3333C20.4582 18.3333 20.8332 18.7083 20.8332 19.1667C20.8332 19.625 20.4665 20 19.9998 20ZM23.3332 20C22.8665 20 22.4998 19.625 22.4998 19.1667C22.4998 18.7083 22.8748 18.3333 23.3332 18.3333C23.7915 18.3333 24.1665 18.7083 24.1665 19.1667C24.1665 19.625 23.7998 20 23.3332 20Z" fill="white"/>
</svg>
